<?xml version="1.0" encoding="UTF-8"?>
<svg id="Layer_1" data-name="Layer 1" xmlns="http://www.w3.org/2000/svg" viewBox="0 0 360.62 360.43">
  <path d="M84.04,17.91C84.76,5.16,88.15,.18,95.93,0c7.81-.17,11.1,4.42,12.6,17.78h59.77c0-2.11-.07-4.08,.01-6.04C168.59,5.02,173.89-.08,180.46,0c6.38,.08,11.54,5.15,11.82,11.71,.09,1.97,.01,3.94,.01,6.1h60.08c0-1.88-.05-3.82,0-5.76,.2-6.81,5.29-11.97,11.85-12.05,6.69-.08,11.95,5.17,12.15,12.15,.05,1.75,0,3.5,0,5.42,5.12,.63,10.19,1.04,15.18,1.89,38.73,6.65,68.59,41.19,68.8,80.52,.32,59.41,.36,118.82,0,178.23-.27,44.49-37.6,81.75-82.1,81.97-65.3,.33-130.6,.33-195.9,0C37.72,359.96,.45,322.56,.21,277.87-.09,218.96-.04,160.05,.19,101.14,.36,56.29,36.44,19.58,81.28,18.05c.85-.03,1.7-.09,2.77-.14Zm84.25,161.95c-.8,.16-1.04,.25-1.28,.25-13.13,.02-26.26,.01-39.39,.04-7.96,.02-13.39,4.92-13.38,12.02,.01,7.07,5.48,11.97,13.43,11.99,12.13,.02,24.26,0,36.39,0h4.22c0,13.96-.02,27.45,0,40.93,.02,7.64,5,13.07,11.94,13.1,6.96,.03,12.04-5.37,12.06-12.98,.04-12.25,.01-24.51,.01-36.76,0-1.33,0-2.67,0-4.3,1.76,0,3.12,0,4.47,0,12.38,0,24.76,.05,37.14-.02,7.07-.04,12.35-5.18,12.43-11.84,.08-6.82-5.27-12.09-12.52-12.14-9.75-.07-19.51-.02-29.26-.02-3.97,0-7.94,0-12.26,0,0-1.7,0-3.04,0-4.38,0-12.5,.06-25.01-.03-37.51-.05-6.37-4.61-11.4-10.62-12.09-6.06-.69-11.74,3.32-13.06,9.39-.34,1.56-.29,3.23-.3,4.85-.02,13.1-.01,26.2-.01,39.46Z"/>
</svg>