<?xml version="1.0" encoding="UTF-8"?>
<svg id="Layer_1" data-name="Layer 1" xmlns="http://www.w3.org/2000/svg" viewBox="0 0 360.41 360.33">
  <path d="M240.28,0c0,13.49-.08,26.48,.03,39.47,.08,9.37-.41,18.84,.78,28.08,2.92,22.74,23.12,40.26,46.1,40.47,22.89,.22,45.79,.06,68.69,.07,1.35,0,2.7,0,4.53,0v5.09c0,50.04,.05,100.07-.02,150.11-.07,48.79-34.13,88.54-82.25,95.98-4.8,.74-9.72,.98-14.58,.98-55.55,.07-111.1,.11-166.65,.02-46.65-.07-85.23-31.32-94.81-76.88-1.35-6.43-1.95-13.14-1.96-19.72C-.03,208.01-.03,152.35,.06,96.68,.14,48.19,34.35,8.41,82.24,1.02c4.43-.68,8.97-.96,13.46-.97C142.87-.02,190.03,0,237.2,0c.86,0,1.72,0,3.07,0Zm-48.05,192.16h4.45c12.13,0,24.26,.02,36.39,0,7.7-.02,13.11-4.91,13.2-11.84,.09-7.09-5.38-12.15-13.25-12.17-12.25-.03-24.51,0-36.76,0-1.31,0-2.61,0-4.03,0,0-13.99,.02-27.37,0-40.75-.02-7.89-5.04-13.36-12.13-13.29-6.96,.07-11.86,5.44-11.88,13.14-.03,12.25,0,24.51,0,36.76,0,1.32,0,2.63,0,4.13-14.04,0-27.53-.02-41.02,0-7.64,.02-13.02,5.02-13.02,12,0,6.94,5.42,11.98,13.04,12,12.25,.04,24.51,.01,36.76,.01h4.24c0,1.82,0,3.17,0,4.53,0,12.13-.12,24.26,.1,36.38,.05,2.62,.79,5.51,2.1,7.76,2.63,4.53,8.17,6.32,13.06,4.87,5.32-1.57,8.72-5.95,8.75-11.72,.07-13.75,.02-27.49,.02-41.82Z"/>
  <path d="M264.5,3.96c4.33,3.1,8.36,5.38,11.68,8.45,23.22,21.46,46.29,43.07,69.38,64.68,2.05,1.92,3.79,4.15,6.35,6.99-2.24,0-3.43,0-4.62,0-19.12,0-38.24,.02-57.37,0-15.5-.02-25.59-10.08-25.61-25.55-.02-16.74,0-33.49,0-50.23,0-1.08,.09-2.16,.19-4.32Z"/>
</svg>