<?xml version="1.0" encoding="utf-8"?>
<!-- Generator: Adobe Illustrator 26.5.0, SVG Export Plug-In . SVG Version: 6.00 Build 0)  -->
<svg version="1.1" id="Layer_1" xmlns="http://www.w3.org/2000/svg" xmlns:xlink="http://www.w3.org/1999/xlink" x="0px" y="0px"
	 viewBox="0 0 512 512" style="enable-background:new 0 0 512 512;" xml:space="preserve">
<path d="M268.5,131.63v-13.14c0-6.9-5.6-12.5-12.5-12.5s-12.5,5.6-12.5,12.5v13.14c-75.5,6.77-131.21,73.46-124.45,148.96
	c2.57,28.69,14.1,55.84,32.96,77.61c-13.34,6.6-21.57,20.42-21.01,35.3c0,6.9,5.6,12.5,12.5,12.5c6.9,0,12.5-5.6,12.5-12.5
	c-0.22-8,5.89-14.76,13.88-15.36c0.86-0.16,1.7-0.42,2.5-0.77c49.25,38.2,118.12,38.2,167.38,0c0.73,0.34,1.49,0.6,2.27,0.8
	c8.01,0.55,14.17,7.31,13.98,15.34c0,6.9,5.6,12.5,12.5,12.5c6.9,0,12.5-5.6,12.5-12.5c0.56-14.88-7.67-28.7-21.01-35.3
	c49.63-57.3,43.41-143.98-13.88-193.6C324.34,145.73,297.19,134.2,268.5,131.63z M143.5,268.49c0-62.13,50.37-112.5,112.5-112.5
	s112.5,50.37,112.5,112.5s-50.37,112.5-112.5,112.5C193.9,380.91,143.58,330.59,143.5,268.49z"/>
<path d="M346.19,105.99c-6.9,0-12.5,5.6-12.5,12.5c0,6.9,5.6,12.5,12.5,12.5c17.83-1.36,33.38,12,34.74,29.83
	c0.04,0.47,0.06,0.95,0.08,1.42c0,6.9,5.6,12.5,12.5,12.5c6.9,0,12.5-5.6,12.5-12.5c-0.66-31.75-26.94-56.95-58.69-56.28
	C346.94,105.96,346.56,105.97,346.19,105.99z"/>
<path d="M131,162.24c0.57-17.87,15.52-31.9,33.39-31.33c0.47,0.02,0.95,0.04,1.42,0.08c6.9,0,12.5-5.6,12.5-12.5
	c0-6.9-5.6-12.5-12.5-12.5c-31.73-1.28-58.49,23.4-59.78,55.13c-0.02,0.37-0.03,0.75-0.03,1.12c0,6.9,5.6,12.5,12.5,12.5
	S131,169.14,131,162.24z"/>
<path d="M268.5,250.81v-57.32c0-6.9-5.6-12.5-12.5-12.5s-12.5,5.6-12.5,12.5v62.5c0,3.31,1.32,6.49,3.66,8.84l37.5,37.5
	c4.97,4.8,12.88,4.66,17.68-0.31c4.68-4.84,4.68-12.52,0-17.37L268.5,250.81z"/>
</svg>
