<?xml version="1.0" encoding="UTF-8"?>
<svg id="Layer_1" data-name="Layer 1" xmlns="http://www.w3.org/2000/svg" viewBox="0 0 299.01 408.48">
  <path d="M157.44,0c7.45,1.85,15.24,2.84,22.29,5.69,34.5,13.91,54.48,39.49,56.65,76.77,1.58,27.19,.61,54.53,.64,81.8,.02,14.5,.61,29.07-.58,43.48-2.96,35.69-21.41,61.34-54.4,74.73-41.77,16.95-85.92,.89-108.75-38.01-8.07-13.74-11.39-28.83-11.4-44.67-.04-36.86-.39-73.72,.09-110.57,.49-37.67,17.93-65.22,52.06-81.42,7.43-3.52,15.96-4.71,23.99-6.96,1.14-.32,2.3-.55,3.45-.82C146.8,0,152.12,0,157.44,0Zm55.23,144.71s.04,0,.06,0c0-20.61,.83-41.26-.18-61.82-1.87-38.16-38.97-65.68-76.29-57.48-29.97,6.59-50.19,31.7-50.38,63.32-.23,37.24-.31,74.48,.01,111.72,.35,40.82,33.59,69.31,73.82,63.8,27.63-3.79,51.58-28.93,52.78-56.92,.89-20.84,.18-41.74,.18-62.62Z"/>
  <path d="M161.53,346.5v61.98h-23.9v-61.89c-47.94-5-85.63-27.16-112.63-66.63C8.16,255.33,.03,227.71,0,197.5H23.62c1.43,43.11,19.12,77.87,54.44,103,21.41,15.23,45.65,22.6,71.91,22.37,34.44-.3,64.19-12.7,88.47-37.08,24.16-24.25,36.11-53.97,36.7-88.34h23.86c-.54,38.91-13.57,72.63-39.83,101.09-26.28,28.48-59.01,44.13-97.64,47.95Z"/>
</svg>