<?xml version="1.0" encoding="utf-8"?>
<!-- Generator: Adobe Illustrator 26.5.0, SVG Export Plug-In . SVG Version: 6.00 Build 0)  -->
<svg version="1.1" id="Layer_1" xmlns="http://www.w3.org/2000/svg" xmlns:xlink="http://www.w3.org/1999/xlink" x="0px" y="0px"
	 viewBox="0 0 24 24" style="enable-background:new 0 0 24 24;" xml:space="preserve">
<style type="text/css">
	.st0{fill:#007FFF;}
</style>
<g>
	<path d="M16.9,20c-0.5,2.3-2.5,4-4.9,4s-4.4-1.7-4.9-4H16.9L16.9,20z"/>
	<circle class="st0" cx="20.5" cy="3.5" r="3.5"/>
	<path d="M20.9,9c-0.1,0-0.2,0-0.2,0C17.5,9,15,6.5,15,3.5c0-0.9,0.2-1.8,0.6-2.5c-1.2-0.6-2.6-1-4.1-1C7.5,0,4,2.7,3.2,6.5l-2,6.2
		c-0.8,2.6,1.2,5.3,4,5.3h13.1c2.9,0,5-2.8,4-5.5L20.9,9L20.9,9z"/>
</g>
</svg>
