<?xml version="1.0" encoding="utf-8"?>
<!-- Generator: Adobe Illustrator 26.5.0, SVG Export Plug-In . SVG Version: 6.00 Build 0)  -->
<svg version="1.1" id="Layer_1" xmlns="http://www.w3.org/2000/svg" xmlns:xlink="http://www.w3.org/1999/xlink" x="0px" y="0px"
	 viewBox="0 0 340.8 340.8" style="enable-background:new 0 0 340.8 340.8;" xml:space="preserve">
<path d="M180.1,334.6h-19.2c-1.4,0-1.4,0-2.7,0c-16.5-1.4-34.3-4.1-49.4-11c-63.2-27.4-97.5-76.9-103-145.5
	C3,146.5,11.3,115,29.1,87.5c30.2-49.4,75.6-76.9,134.6-81c27.4-1.4,52.2,4.1,76.9,15.1c50.8,24.7,81.1,64.5,92,119.5
	c1.4,6.9,1.4,12.3,2.7,19.2v19.2c0,1.4,0,1.4,0,2.7c-1.4,20.6-6.9,39.8-15.1,57.7c-24.7,50.8-64.5,81.1-119.5,92
	C193.9,333.3,187,333.3,180.1,334.6L180.1,334.6z M251.6,65.5c-49.4-39.8-125-38.4-174.4,10.9c-50.8,52.2-46.7,127.7-9.6,173
	C128,189.1,189.7,127.3,251.6,65.5L251.6,65.5z M90.9,274.2c48,38.4,123.6,39.8,174.4-12.3c53.5-53.5,45.3-130.4,9.6-171.6
	C213.1,150.6,152.7,212.4,90.9,274.2L90.9,274.2z"/>
</svg>
