<?xml version="1.0" encoding="utf-8"?>
<!-- Generator: Adobe Illustrator 26.5.0, SVG Export Plug-In . SVG Version: 6.00 Build 0)  -->
<svg version="1.1" id="Layer_1" xmlns="http://www.w3.org/2000/svg" xmlns:xlink="http://www.w3.org/1999/xlink" x="0px" y="0px"
	 viewBox="0 0 512 512" style="enable-background:new 0 0 512 512;" xml:space="preserve">
<g id="_01_align_center">
	<path d="M381.48,227.85c42.75-69.05,21.43-159.69-47.64-202.45c-23.33-14.44-50.25-22.08-77.69-22.01H66.68v505.23h252.61
		c81.32,0.08,147.31-65.76,147.39-147.08C466.75,304.19,433.49,252.01,381.48,227.85z M150.88,87.59h105.25
		c34.88,0,63.15,28.28,63.15,63.15c0,34.88-28.28,63.15-63.15,63.15H150.88L150.88,87.59L150.88,87.59z M319.29,424.41H150.88
		V298.11h168.41c34.88,0,63.15,28.28,63.15,63.15C382.45,396.13,354.17,424.41,319.29,424.41z"/>
</g>
</svg>
