<?xml version="1.0" encoding="UTF-8"?>
<svg id="Layer_1" data-name="Layer 1" xmlns="http://www.w3.org/2000/svg" viewBox="0 0 287.45 223.47">
  <path d="M144.09,31.81c-42.29,0-84.58,.02-126.88-.01C7.18,31.79-.12,24.84,0,15.6,.11,7.49,6.7,.56,14.8,.07,15.92,0,17.05,0,18.17,0,101.88,0,185.59,0,269.3,0c8.74,0,14.79,3.7,17.22,10.48,3.6,10.03-3.71,21.03-14.44,21.24-12.97,.25-25.95,.09-38.92,.09-29.69,0-59.38,0-89.07,0Z"/>
  <path d="M143.7,223.44c-31.55,0-63.1,.03-94.65-.02-10.59-.01-17.65-7.35-16.98-17.42,.46-6.98,6.69-13.48,13.66-14.22,1.36-.14,2.74-.14,4.11-.14,62.6,0,125.2,.02,187.81-.05,5.26,0,9.81,1.16,13.49,5.13,4.44,4.8,5.53,10.38,3.26,16.28-2.36,6.13-6.92,10.19-13.79,10.33-10.84,.23-21.7,.1-32.55,.11-21.45,0-42.9,0-64.35,0Z"/>
  <path d="M143.31,127.62c-21.07,0-42.14,.08-63.21-.04-10.77-.06-18.11-9.44-15.76-19.71,1.41-6.17,7.46-11.42,13.79-11.95,.99-.08,1.99-.1,2.99-.1,41.76,0,83.53-.02,125.29,0,8.68,0,15.21,4.95,16.75,12.49,2.06,10.16-5.26,19.2-15.89,19.27-18.95,.12-37.9,.04-56.85,.04-2.37,0-4.74,0-7.11,0Z"/>
</svg>