<?xml version="1.0" encoding="UTF-8"?>
<svg id="Layer_1" data-name="Layer 1" xmlns="http://www.w3.org/2000/svg" viewBox="0 0 22.5 20">
  <defs>
    <style>
      .cls-1 {
        fill: #fff;
      }
    </style>
  </defs>
  <path d="M3.4,2.03c.01-.27,0-.51,.04-.75C3.55,.49,4.22-.04,5.03,0c.81,.04,1.42,.64,1.46,1.42,0,.19,0,.39,0,.59,.07,0,.12,.01,.16,.01,.48,0,.96,0,1.48,0,0-.18,0-.34,0-.5,.02-.81,.66-1.48,1.46-1.51,.84-.03,1.53,.57,1.59,1.41,.02,.19,0,.38,0,.59h1.66c0-.2-.01-.4,0-.6,.06-.73,.63-1.31,1.35-1.4,.72-.08,1.42,.36,1.63,1.06,.06,.21,.06,.44,.08,.67,0,.08,0,.17,0,.28,.49,0,.96,.02,1.42,0,.98-.06,1.77,.71,1.76,1.75-.02,2.77,0,5.54,0,8.31,0,.09,0,.19,0,.29,.23,.05,.45,.09,.67,.14,2.06,.53,2.93,2.34,2.72,4.07-.09,.79-.37,1.5-.88,2.1-.88,1.05-2.03,1.38-3.35,1.25-.14-.01-.28,0-.41,.01-.15,.01-.29,.04-.44,.04-5.22,0-10.45,0-15.67,0-1,0-1.7-.68-1.7-1.69C0,13.45,0,8.58,0,3.72c0-1.01,.69-1.68,1.69-1.69,.56,0,1.12,0,1.7,0Zm12.93,17.22c-.26-.28-.51-.52-.72-.8-.11-.15-.22-.2-.4-.2-4.31,0-8.62,0-12.94,0-.43,0-.54-.12-.54-.54,0-3.61,0-7.22,0-10.83,0-.4,.11-.52,.51-.52,4.86,0,9.72,0,14.57,0,.41,0,.52,.11,.52,.53,0,1.79,0,3.59,0,5.38,0,.09,0,.18,0,.28,.34-.08,.66-.15,.97-.22,0-.04,0-.07,0-.1,0-2.85,0-5.71,0-8.56,0-.53-.37-.89-.9-.89-1.21,0-2.42,0-3.63,0-.07,0-.13,0-.21,.02,0,.43,0,.83,0,1.24,0,.38-.12,.56-.37,.57-.25,0-.37-.18-.37-.56,0-.41,0-.82,0-1.24h-3.96c0,.1,0,.19,0,.27,0,.38,0,.76,0,1.15,0,.23-.18,.39-.39,.39-.2,0-.35-.16-.36-.39,0-.1,0-.2,0-.3,0-.37,0-.74,0-1.11h-3.95c0,.07,0,.11,0,.16,0,.42,0,.84,0,1.26,0,.23-.16,.38-.36,.38-.19,0-.35-.14-.37-.35-.01-.08,0-.17,0-.26,0-.4,0-.79,0-1.2-.67,0-1.31,0-1.96,0-.09,0-.18,.05-.26,.09-.35,.2-.45,.53-.45,.91,0,4.8,0,9.61,0,14.41,0,.71,.33,1.04,1.04,1.04,4.76,0,9.53,0,14.29,0h.25Zm2.39-6.15c-1.7-.01-3.05,1.33-3.07,3.02-.01,1.74,1.32,3.12,3.01,3.13,1.71,0,3.09-1.35,3.11-3.05,.02-1.69-1.36-3.09-3.06-3.11ZM2.49,17.5h2.94v-2.94H2.49v2.94Zm14.08-7.43v-2.93h-2.94v2.93h2.94Zm-11.13,.77H2.49v2.93h2.95v-2.93Zm3.7,6.66v-2.95h-2.92v2.95h2.92Zm3.71-2.95h-2.93v2.94h2.93v-2.94Zm-6.64-3.72v2.94h2.93v-2.94h-2.93Zm3.71,0v2.93h2.94v-2.93h-2.94Zm3.72,2.95c.67,0,1.31,0,1.95,0,.06,0,.11-.07,.16-.11,.23-.21,.47-.41,.69-.63,.07-.07,.14-.19,.14-.28,.01-.47,0-.95,0-1.42,0-.17,0-.34,0-.5h-2.95v2.95ZM2.5,7.13v2.94h2.94v-2.94H2.5Zm10.36,2.94v-2.94h-2.93v2.94h2.93Zm-6.65,0h2.93v-2.93h-2.93v2.93Zm9,4.48c-.51,0-.99,0-1.46,0-.04,0-.12,.09-.12,.14,0,.89,0,1.77,0,2.66,0,.05,.08,.14,.12,.14,.44,.01,.88,0,1.35,0-.34-1-.3-1.97,.11-2.96ZM5.73,2.02c0-.46,.1-.93-.39-1.18-.29-.15-.61-.14-.88,.06-.39,.29-.29,.71-.29,1.12h1.56Zm7.86,0h1.55c.02-.45,.07-.89-.39-1.15-.27-.16-.56-.15-.82,.02-.42,.27-.37,.7-.34,1.13Zm-3.18,0c.11-.53,0-.94-.33-1.14-.28-.18-.58-.17-.86,0-.32,.21-.43,.62-.31,1.13h1.5Z"/>
  <path class="cls-1" d="M5.73,2.02h-1.56c0-.4-.1-.82,.29-1.12,.27-.21,.59-.22,.88-.06,.49,.25,.4,.72,.39,1.18Z"/>
  <path class="cls-1" d="M13.59,2.01c-.02-.43-.08-.86,.34-1.13,.26-.17,.55-.18,.82-.02,.46,.26,.41,.71,.39,1.15h-1.55Z"/>
  <path class="cls-1" d="M10.41,2.02h-1.5c-.12-.52,0-.93,.31-1.13,.28-.18,.57-.18,.86,0,.33,.2,.44,.61,.33,1.14Z"/>
  <path d="M18.46,15.6c.31-.31,.58-.59,.85-.86,.28-.27,.61-.34,.97-.22,.37,.12,.58,.38,.64,.76,.05,.31-.04,.59-.26,.81-.5,.51-1.01,1.02-1.52,1.52-.36,.34-.83,.4-1.21,.08-.46-.39-.89-.82-1.3-1.28-.32-.36-.24-.92,.11-1.25,.36-.34,.91-.36,1.28-.03,.15,.13,.27,.29,.43,.46Zm.01,1.56c.08-.05,.16-.09,.21-.15,.47-.46,.94-.93,1.4-1.4,.11-.11,.19-.22,.04-.36-.13-.13-.24-.05-.34,.06-.32,.33-.65,.65-.97,.97-.26,.25-.44,.25-.7,0-.18-.18-.36-.36-.54-.54-.11-.11-.23-.15-.34-.02-.11,.13-.04,.23,.06,.32,.32,.32,.65,.65,.97,.97,.05,.05,.12,.09,.2,.14Z"/>
  <path d="M3.78,8.66c.24-.25,.41-.44,.59-.62,.19-.18,.39-.18,.55-.01,.16,.17,.15,.36-.03,.54-.26,.27-.52,.54-.8,.79-.25,.23-.38,.22-.62,0-.17-.15-.32-.31-.48-.48-.14-.16-.14-.36,0-.51,.14-.15,.36-.17,.52-.02,.09,.08,.16,.19,.26,.32Z"/>
  <path d="M11.26,8.62c.21-.22,.39-.44,.6-.63,.15-.14,.36-.12,.5,.03,.14,.15,.17,.33,.03,.48-.28,.3-.57,.59-.88,.87-.21,.19-.34,.19-.55,0-.19-.17-.36-.34-.53-.53-.14-.15-.13-.33,0-.49,.13-.15,.34-.17,.5-.04,.1,.08,.19,.18,.32,.3Z"/>
  <path d="M7.53,8.61c.19-.2,.37-.39,.56-.57,.19-.18,.38-.18,.55,0,.15,.16,.15,.36-.03,.54-.27,.28-.55,.55-.83,.82-.17,.17-.36,.17-.54,0-.19-.18-.37-.35-.54-.54-.13-.15-.12-.33,.01-.49,.13-.15,.35-.16,.5-.03,.1,.08,.19,.18,.31,.29Z"/>
</svg>