<?xml version="1.0" encoding="utf-8"?>
<!-- Generator: Adobe Illustrator 26.5.0, SVG Export Plug-In . SVG Version: 6.00 Build 0)  -->
<svg version="1.1" id="Layer_1" xmlns="http://www.w3.org/2000/svg" xmlns:xlink="http://www.w3.org/1999/xlink" x="0px" y="0px"
	 viewBox="0 0 512 512" style="enable-background:new 0 0 512 512;" xml:space="preserve">
<path d="M309.42,279.41L287.82,301l21.6,21.58c8.79,8.79,8.79,23.04,0,31.83c-8.79,8.79-23.04,8.79-31.83,0L256,332.81l-21.58,21.6
	c-8.79,8.79-23.04,8.79-31.83,0c-8.79-8.79-8.79-23.04,0-31.83l21.6-21.58l-21.6-21.58c-8.79-8.79-8.79-23.04,0-31.83
	c8.79-8.79,23.04-8.79,31.83,0l0,0l21.58,21.6l21.58-21.6c8.79-8.79,23.04-8.79,31.83,0C318.2,256.37,318.2,270.63,309.42,279.41
	L309.42,279.41L309.42,279.41z M406,198.35V353.5c-0.05,45.54-36.96,82.45-82.5,82.5h-135c-45.54-0.05-82.45-36.96-82.5-82.5v-195
	c0.05-45.54,36.96-82.45,82.5-82.5h95.14c21.89-0.06,42.9,8.64,58.33,24.16l39.85,39.85C397.36,155.46,406.06,176.46,406,198.35z
	 M361,353.5V211h-60c-16.57,0-30-13.43-30-30v-60h-82.5c-20.71,0-37.5,16.79-37.5,37.5v195c0,20.71,16.79,37.5,37.5,37.5h135
	C344.21,391,361,374.21,361,353.5z"/>
</svg>
