<?xml version="1.0" encoding="utf-8"?>
<!-- Generator: Adobe Illustrator 26.5.0, SVG Export Plug-In . SVG Version: 6.00 Build 0)  -->
<svg version="1.1" id="Layer_1" xmlns="http://www.w3.org/2000/svg" xmlns:xlink="http://www.w3.org/1999/xlink" x="0px" y="0px"
	 viewBox="0 0 314.7 167.9" style="enable-background:new 0 0 314.7 167.9;" xml:space="preserve">
<path d="M161.8,120.5c1.2-1.5,1.9-2.4,2.8-3.3c31.6-31.6,63.2-63.3,94.9-94.8c2.2-2.1,5-4,7.9-4.8c5.2-1.4,10.5,1.4,13.3,6.2
	c2.7,4.6,2.2,9.8-1.4,14.1c-0.8,1-1.8,1.9-2.7,2.8c-34.8,34.8-69.6,69.5-104.3,104.3c-2.5,2.5-4.7,4.9-8.6,5.3
	c-4.1,0.4-7.7-0.6-10.6-3.5c-17.8-17.8-35.6-35.6-53.4-53.4c-5.3-5.3-5.2-12.7-0.1-17.8c5.1-5.1,12.5-5.2,17.8,0
	c14,13.9,27.9,27.9,41.9,41.8C160,118.3,160.6,119.1,161.8,120.5L161.8,120.5z"/>
<path d="M111,138.3c-0.4,4.6-2.7,8.7-7.2,11.1c-4.7,2.5-10.5,1.2-14.5-2.8c-14-14-28-28-42-42c-3.6-3.6-7.3-7.3-10.9-10.9
	c-5.3-5.4-5.4-12.9-0.3-18c5.1-5.1,12.5-5.2,17.8,0c17.8,17.6,35.5,35.4,53.2,53.1C109.6,131.3,111,134.3,111,138.3L111,138.3z"/>
<path d="M206.1,17.3c5.5,0.2,9.4,2.8,11.7,7.7c2.2,4.8,1.4,9.4-2.2,13.2c-13.8,14.4-27.6,28.6-41.6,42.8c-1.4,1.4-3.4,2.5-5.3,3
	c-5.6,1.5-10.9-0.9-13.9-6c-2.9-4.8-2.3-10.5,1.7-14.8c7.4-7.8,14.9-15.4,22.3-23.1c6-6.2,12-12.4,18-18.5
	C199.2,19,202.2,17.3,206.1,17.3z"/>
</svg>
