<?xml version="1.0" encoding="UTF-8"?>
<svg id="Layer_1" data-name="Layer 1" xmlns="http://www.w3.org/2000/svg" viewBox="0 0 319.4 322.92">
  <path d="M319.37,139.17c.01-18.88-7.49-34.1-22.22-45.77-33.86-26.8-67.71-53.61-101.62-80.35-22.25-17.54-49.77-17.35-71.98,.24C89.89,39.94,56.22,66.58,22.52,93.18,7.65,104.92,0,120.13,0,139.17c.02,42.37-.03,84.73,.07,127.1,.01,4.34,.36,8.78,1.33,13,5.94,26.01,27.97,43.49,54.99,43.58,34.3,.12,68.61,.03,102.92,.03s67.87,.02,101.8-.02c3.49,0,7.03,.01,10.45-.55,28.46-4.7,47.68-27.14,47.77-56.04,.13-42.36,.03-84.73,.04-127.1Zm-120.6,127.82c-1,.04-1.99,.01-2.99,.01H124c-1.12,0-2.24,.03-3.36-.01-5.4-.22-8.89-3.44-8.85-8.13,.05-4.69,3.54-7.92,9-7.96,12.96-.08,25.92-.02,38.88-.02s26.17-.07,39.25,.04c5.2,.04,8.6,3.34,8.66,7.9,.07,4.69-3.42,7.94-8.81,8.17Z"/>
</svg>