<?xml version="1.0" encoding="UTF-8"?>
<svg id="Layer_1" data-name="Layer 1" xmlns="http://www.w3.org/2000/svg" viewBox="0 0 319.39 322.92">
  <path d="M159.31,322.89c-34.31,0-68.62,.09-102.93-.03-27.02-.09-49.05-17.57-54.99-43.58-.96-4.22-1.32-8.66-1.33-13C-.03,223.91,.02,181.54,0,139.17c0-19.04,7.64-34.25,22.52-45.99C56.22,66.58,89.89,39.95,123.54,13.29c22.21-17.59,49.73-17.78,71.98-.23,33.91,26.73,67.76,53.54,101.62,80.35,14.74,11.67,22.23,26.89,22.22,45.77-.01,42.37,.09,84.74-.04,127.11-.09,28.9-19.31,51.34-47.77,56.03-3.42,.56-6.96,.55-10.44,.55-33.93,.04-67.87,.02-101.8,.02Zm.38-15.94c33.94,0,67.89,.01,101.83,0,24.78-.01,41.92-17.12,41.93-41.88,.02-41.88-.02-83.76,.02-125.64,.01-13.81-5.38-24.91-16.17-33.44-33.98-26.86-67.94-53.76-101.95-80.58-16.07-12.67-35.47-12.51-51.61,.24-33.79,26.71-67.55,53.45-101.37,80.11-11.05,8.71-16.5,19.95-16.47,34.05,.08,41.63,.02,83.26,.03,124.89,0,25.26,17.02,42.24,42.31,42.25,33.82,.01,67.64,0,101.45,0Z"/>
  <path d="M159.66,250.88c13.08,0,26.17-.07,39.25,.04,5.2,.04,8.6,3.34,8.66,7.9,.07,4.69-3.42,7.94-8.81,8.17-1,.04-1.99,.01-2.99,.01-23.93,0-47.85,0-71.78,0-1.12,0-2.24,.03-3.36-.01-5.4-.22-8.89-3.43-8.84-8.13,.04-4.69,3.54-7.92,8.99-7.95,12.96-.08,25.92-.03,38.88-.02Z"/>
</svg>