<?xml version="1.0" encoding="UTF-8"?>
<svg id="Layer_1" data-name="Layer 1" xmlns="http://www.w3.org/2000/svg" viewBox="0 0 343.41 343.41">
  <path d="M319.41,195.62c0-2.07,0-3.4,0-4.73,0-16.72-.07-33.44,.03-50.15,.05-8.85,7.05-14.54,15.05-12.48,4.85,1.24,8.39,5.43,8.8,10.44,.07,.87,.08,1.74,.08,2.62,0,41.92,.13,83.84-.04,125.76-.14,34.82-21.83,63.93-54.79,73.22-7.1,2-14.73,2.92-22.12,2.95-63.14,.22-126.28,.2-189.42,.1-39.96-.06-71.02-27.34-76.49-66.94-.39-2.83-.43-5.72-.43-8.59-.02-64-.18-128,.04-192.01C.24,38.8,25.35,8.68,61.59,1.47c4.85-.97,9.91-1.29,14.87-1.3C118.39,.06,160.32,.24,202.24,0c10.08-.06,14.91,8.71,12.98,14.99-1.36,4.42-4.11,7.39-8.58,8.51-1.9,.48-3.95,.53-5.93,.53-41.3,.03-82.61-.03-123.91,.04-25.24,.04-45.63,15.82-51.35,39.78-1,4.2-1.38,8.63-1.39,12.96-.1,43.79-.04,87.58-.11,131.37,0,2.51,.71,4.05,2.85,5.45,12.31,8.06,24.5,16.31,36.77,24.42,26.49,17.52,59.37,14.24,81.87-8.17,17.15-17.08,34.24-34.23,51.36-51.33,24.04-24.01,56.09-27.18,84.48-8.35,12.46,8.26,24.88,16.57,38.13,25.4Z"/>
  <path d="M116.11,75.92c21.85,.15,39.69,18.11,39.66,39.94-.03,21.95-18.23,40.07-40.1,39.94-22.04-.13-39.9-18.18-39.79-40.19,.11-22,18.19-39.83,40.23-39.69Z"/>
  <path d="M295.45,48.02c9.27,0,17.98,0,26.69,0,3.12,0,6.24-.07,9.35,.03,6.59,.21,11.52,4.89,11.83,11.12,.33,6.73-4.15,12.16-11.03,12.65-5.59,.4-11.22,.14-16.83,.16-6.24,.03-12.47,.04-18.71,.07-.24,0-.47,.14-1.3,.4,0,1.13,0,2.44,0,3.76,0,10.1,.03,20.2-.01,30.3-.03,7.94-4.99,13.41-11.99,13.35-6.93-.06-11.91-5.65-11.95-13.52-.05-9.98-.01-19.95-.01-29.93,0-1.34,0-2.68,0-4.44-3.98,0-7.56,0-11.14,0-7.98,0-15.97,.08-23.95-.03-7.48-.11-12.98-5.49-12.8-12.27,.19-6.81,5.43-11.59,12.92-11.64,10.1-.06,20.21-.02,30.31-.02,1.35,0,2.7,0,4.43,0,.09-1.61,.21-2.92,.22-4.24,.02-10.35-.03-20.7,.03-31.05,.04-5.47,2.35-9.69,7.6-11.76,4.55-1.79,8.85-1.03,12.51,2.31,2.73,2.49,3.86,5.68,3.84,9.38-.06,10.23-.02,20.45-.01,30.68,0,1.35,0,2.71,0,4.68Z"/>
</svg>