<?xml version="1.0" encoding="UTF-8"?>
<svg id="Layer_1" data-name="Layer 1" xmlns="http://www.w3.org/2000/svg" viewBox="0 0 311.45 337.88">
  <path d="M310.79,117.34c0,16.95,1.05,33.99-.2,50.84-3.35,44.85-22.34,82.44-55.16,113.11-13.24,12.37-28.66,21.49-44.47,30.07-13.36,7.25-26.65,14.62-39.86,22.13-10.36,5.88-20.44,5.85-30.82-.07-19.91-11.35-40.52-21.57-59.83-33.85C34.97,270.66,8.76,228.93,1.47,175.51c-.99-7.26-1.33-14.66-1.38-22C-.06,126.82,.02,100.13,.04,73.44c0-17.04,10.11-28,27-29.93,39.8-4.55,76.97-17.03,111.24-37.83,7.71-4.68,15.62-7.16,24.52-4.73,2.73,.75,5.45,1.89,7.85,3.36,32.87,20.07,68.36,32.8,106.46,38.32,3.82,.55,7.69,.82,11.48,1.54,13.38,2.53,22.68,13.54,22.8,27.15,.13,15.34,.03,30.68,.03,46.02h-.63Zm-286.8,.39c.2,0,.41,0,.61,0,0,16.45-1.23,33.01,.23,49.34,4.34,48.55,27.53,86.38,68.67,112.43,19.23,12.17,39.63,22.51,59.62,33.44,1.54,.84,4.46,.46,6.14-.45,18.27-9.95,36.76-19.54,54.53-30.33,47.07-28.59,71.83-70.76,73.51-125.81,.85-27.66,.13-55.37,.2-83.05,0-3.63-1.25-5.37-5.03-5.93-11.08-1.66-22.2-3.23-33.13-5.62-31.77-6.95-61.53-19.08-89.3-36.01-2.85-1.74-5.19-2.07-8.23-.22-37.7,22.96-78.56,36.74-122.37,41.92-4.76,.56-5.45,1.37-5.45,6.15-.01,14.72,0,29.43,0,44.15Z"/>
  <path d="M146.99,175.83c11.22-11.96,22.14-23.59,33.06-35.22,6.06-6.46,12.08-12.95,18.18-19.37,5.3-5.57,12.54-6.11,17.61-1.43,5.15,4.76,5.08,12.19-.3,17.94-19.34,20.67-38.7,41.33-58.09,61.96-5.86,6.23-12.35,6.5-18.72,.85-11.29-10.01-22.57-20.03-33.82-30.08-5.9-5.28-6.65-12.59-1.92-17.82,4.67-5.16,11.85-5.28,17.66-.17,8.7,7.65,17.34,15.36,26.35,23.36Z"/>
</svg>