<?xml version="1.0" encoding="UTF-8"?>
<svg id="Layer_1" data-name="Layer 1" xmlns="http://www.w3.org/2000/svg" viewBox="0 0 287.45 223.45">
  <path d="M144.09,31.81c-42.29,0-84.58,.02-126.88-.01C7.18,31.79-.12,24.84,0,15.6,.11,7.49,6.7,.56,14.8,.07,15.92,0,17.05,0,18.17,0,101.88,0,185.59,0,269.3,0c8.74,0,14.79,3.7,17.22,10.48,3.6,10.03-3.71,21.03-14.44,21.24-12.97,.25-25.95,.09-38.92,.09-29.69,0-59.38,0-89.07,0Z"/>
  <path d="M144.09,127.61c-42.29,0-84.58,.02-126.88-.01C7.18,127.59-.12,120.64,0,111.4c.11-8.1,6.7-15.03,14.8-15.53,1.12-.07,2.24-.06,3.37-.06,83.71,0,167.42,0,251.13,0,8.74,0,14.79,3.7,17.22,10.48,3.6,10.03-3.71,21.03-14.44,21.24-12.97,.25-25.95,.09-38.92,.09-29.69,0-59.38,0-89.07,0Z"/>
  <path d="M144.09,223.41c-42.29,0-84.58,.02-126.88-.01C7.18,223.39-.12,216.43,0,207.19c.11-8.1,6.7-15.03,14.8-15.53,1.12-.07,2.24-.06,3.37-.06,83.71,0,167.42,0,251.13,0,8.74,0,14.79,3.7,17.22,10.48,3.6,10.03-3.71,21.03-14.44,21.24-12.97,.25-25.95,.09-38.92,.09-29.69,0-59.38,0-89.07,0Z"/>
</svg>