<?xml version="1.0" encoding="UTF-8"?>
<svg id="Layer_1" data-name="Layer 1" xmlns="http://www.w3.org/2000/svg" viewBox="0 0 287.53 223.49">
  <path d="M143.81,31.82c-42.04,0-84.09,0-126.13,0-9.13,0-15.1-4.22-17.15-11.99C-1.97,10.34,4.84,.77,14.61,.08,15.6,.01,16.6,0,17.6,0,101.69,0,185.77,0,269.86,0c9.15,0,15.1,4.2,17.15,11.99,2.5,9.48-4.3,19.05-14.08,19.73-1.62,.11-3.24,.09-4.86,.09-41.42,0-82.84,0-124.26,0Z"/>
  <path d="M128.05,191.67c36.31,0,72.62-.01,108.93,.02,2.35,0,4.8,.01,7.04,.62,7.73,2.09,12.31,9.3,11.38,17.49-.84,7.43-7.23,13.25-15.01,13.64-1,.05-2,.05-2.99,.05-73.12,0-146.23,0-219.35,0-9.47,0-15.44-4.13-17.52-12.02-2.49-9.49,4.33-19.18,14.11-19.67,6.1-.31,12.22-.12,18.34-.12,31.69,0,63.38,0,95.08,0Z"/>
  <path d="M95.86,127.65c-26.32,0-52.64,.04-78.95-.02C7.13,127.61,.1,120.99,0,111.95c-.09-8.55,6.46-15.97,15-15.99,53.88-.13,107.77-.13,161.65,0,8.54,.02,15.12,7.43,15.04,15.96-.08,8.64-6.84,15.63-15.75,15.68-25.19,.14-50.39,.06-75.59,.07-1.5,0-2.99,0-4.49,0Z"/>
</svg>