<?xml version="1.0" encoding="utf-8"?>
<!-- Generator: Adobe Illustrator 26.5.0, SVG Export Plug-In . SVG Version: 6.00 Build 0)  -->
<svg version="1.1" id="Outline" xmlns="http://www.w3.org/2000/svg" xmlns:xlink="http://www.w3.org/1999/xlink" x="0px" y="0px"
	 viewBox="0 0 512 512" style="enable-background:new 0 0 512 512;" xml:space="preserve">
<path d="M256,166.49c-32.96,0-59.67,26.72-59.67,59.67s26.72,59.67,59.67,59.67s59.67-26.72,59.67-59.67S288.96,166.49,256,166.49z
	 M256,256c-16.48,0-29.84-13.36-29.84-29.84s13.36-29.84,29.84-29.84c16.48,0,29.84,13.36,29.84,29.84S272.48,256,256,256z"/>
<path d="M256,435.01c-25.49,0.13-49.46-12.1-64.31-32.82C134.84,323.77,106,264.81,106,226.95
	c0.01-82.84,67.17-149.99,150.01-149.99c82.83,0.01,149.98,67.15,149.99,149.99c0,37.86-28.84,96.82-85.69,175.24
	C305.46,422.91,281.49,435.14,256,435.01z M256,109.52c-64.84,0.07-117.39,52.62-117.46,117.46c0,29.99,28.24,85.44,79.5,156.13
	c15.22,20.97,44.56,25.63,65.53,10.4c3.99-2.9,7.5-6.41,10.4-10.4c51.26-70.7,79.5-126.15,79.5-156.13
	C373.39,162.14,320.84,109.59,256,109.52z"/>
</svg>
