<?xml version="1.0" encoding="UTF-8"?>
<svg id="Layer_1" data-name="Layer 1" xmlns="http://www.w3.org/2000/svg" viewBox="0 0 408.8 379.64">
  <path d="M0,362.25C0,257.12,0,151.99,0,46.86c.25-.45,.58-.88,.74-1.36,3.62-10.88,10.85-16.13,22.34-16.21,1.95-.01,3.9,0,6.35,0,0-3.22-.13-5.99,.02-8.75C30.06,9.07,38.95,.4,50.38,.02c11.01-.37,20.58,8.34,21.62,19.78,.27,3.02,.32,6.06,.47,9.2h59.33c0-3.19-.18-6.11,.03-9.01,.78-10.98,9.54-19.35,20.72-19.95,10.47-.56,20.13,7.51,21.7,18.33,.51,3.5,.52,7.07,.76,10.69h59.05c0-2.58-.1-4.96,.02-7.32C234.74,9.07,244.34-.41,256.03,.02c12.14,.44,20.89,9.82,21.05,22.55,.03,2.19,0,4.38,0,6.44h59.25c.16-3.31,.21-6.37,.48-9.41C337.84,8.43,347.26-.16,358.21,0c11.3,.17,20.49,8.97,21.12,20.33,.16,2.87,.02,5.77,.02,8.96,2.6,0,4.58-.01,6.56,0,13.77,.12,22.86,9.02,22.86,22.74,.04,101.65,.04,203.31-.07,304.96,0,3.47-.81,7.23-2.28,10.37-4.19,8.97-11.95,12.29-21.48,12.29-120.41,0-240.83,0-361.24,0-.67,0-1.33,0-2-.03-8.96-.51-15.7-4.49-19.71-12.68-.74-1.52-1.33-3.11-2-4.67ZM13.67,101.47c0,2.02,0,3.46,0,4.9,0,82.75,0,165.51,0,248.26,0,8.69,2.47,11.21,11.1,11.21,119.74,0,239.48,0,359.22,0,8.67,0,11.15-2.5,11.15-11.16,0-82.75,0-165.51,0-248.26v-4.9c-1.86,0-3.41,.01-4.97,0-6.12-.07-12.24,.04-18.34-.29-3.46-.19-6.03-3.16-5.92-6.39,.12-3.36,1.73-5.89,5.23-6.61,1.8-.37,3.68-.44,5.53-.46,6.06-.05,12.12-.02,18.42-.02,0-12.7,.1-24.79-.06-36.87-.04-3.39-1.69-6.42-5.25-7.19-3.24-.7-6.66-.6-10.45-.88,0,3.75,.15,6.67-.03,9.57-.67,11.03-10,19.79-21.11,19.92-10.87,.13-20.31-8.34-21.34-19.22-.31-3.26-.4-6.53-.59-9.87h-59.19c0,2.46,.27,4.74-.06,6.92-.51,3.38-.89,6.94-2.28,9.98-4.15,9.12-14.08,13.73-23.86,11.57-9.78-2.16-16.41-10.62-16.81-21.53-.08-2.32-.01-4.65-.01-6.87h-59.32c0,2.44,.06,4.56,0,6.68-.4,12.87-9.83,22.53-21.76,22.33-12.14-.19-21.11-9.81-21.25-22.77-.02-2.08,0-4.16,0-6.34h-59.06c-.39,4.43-.27,8.75-1.22,12.82-2.36,10.17-12.33,17.2-22.23,16.17-11.23-1.17-19.16-9.32-19.75-20.4-.15-2.86-.02-5.73-.02-8.82-2.47,0-4.2-.02-5.92,0-6.77,.1-9.74,3.01-9.84,9.72-.05,3.33,0,6.65,0,9.98,0,8.21,0,16.43,0,25.13,2.77,0,5.14-.16,7.48,.04,4.52,.39,7.14,3.14,7.02,7.09-.12,3.79-2.71,6.26-7.1,6.54-2.35,.15-4.71,.03-7.4,.03ZM263.42,36.43c0-4.64,.1-9.29-.03-13.93-.14-5.22-3.06-8.46-7.5-8.6-4.64-.15-7.91,3-8.03,8.43-.2,9.15-.19,18.31-.01,27.47,.1,5.4,3.35,8.71,7.87,8.64,4.52-.06,7.55-3.48,7.68-8.87,.1-4.38,.02-8.76,.02-13.14Zm-118.04-.35c0,4.51-.08,9.03,.02,13.53,.13,5.39,3.19,8.78,7.73,8.82,4.4,.03,7.67-3.12,7.79-8.3,.22-9.28,.22-18.58,.02-27.86-.12-5.42-3.43-8.55-8.08-8.37-4.43,.17-7.31,3.41-7.45,8.65-.12,4.51-.02,9.02-.03,13.53Zm-102.33,0c0,4.51,0,9.02,0,13.53,0,.27,0,.53,.02,.8,.27,4.73,3.39,8.02,7.63,8.06,4.25,.03,7.62-3.19,7.69-7.93,.15-9.55,.15-19.1,.02-28.64-.07-4.84-3.25-7.97-7.58-8.01-4.5-.04-7.62,3.2-7.74,8.27-.11,4.64-.02,9.28-.03,13.92Zm307.3,0c0,4.64-.09,9.29,.02,13.92,.13,5.09,3.2,8.4,7.6,8.45,4.54,.05,7.71-3.39,7.76-8.7,.08-9.15,.09-18.3,0-27.45-.05-5.12-3.13-8.38-7.6-8.42-4.48-.04-7.6,3.18-7.75,8.27-.13,4.64-.03,9.28-.03,13.92Z"/>
  <path d="M175,101.51c-40.04,0-80.08,0-120.12-.01-1.86,0-3.75,0-5.56-.34-3.3-.61-5.1-2.93-5.29-6.13-.19-3.23,1.42-5.69,4.6-6.66,1.62-.49,3.4-.6,5.11-.6,80.88-.03,161.76-.02,242.63-.02,.53,0,1.06-.01,1.6,0,5.09,.19,8.22,2.73,8.34,6.75,.12,4.17-3.07,6.98-8.4,6.99-26.6,.05-53.21,.03-79.81,.03-14.37,0-28.73,0-43.1,0Z"/>
  <path d="M72.83,278.06c6.78,0,13.57-.08,20.35,.02,10.1,.15,15.49,5.57,15.57,15.62,.07,8.78,.07,17.56,0,26.34-.08,9.96-5.65,15.58-15.62,15.65-13.57,.09-27.14,.08-40.71,0-10.16-.06-15.73-5.72-15.78-15.9-.04-8.78-.06-17.56,0-26.34,.07-9.57,5.47-15.14,15.03-15.36,7.05-.16,14.1-.03,21.15-.03Zm-22.32,13.94v29.64h44.28v-29.64H50.51Z"/>
  <path d="M160.72,278.06c6.79,0,13.57-.09,20.35,.02,10.05,.16,15.41,5.64,15.47,15.71,.05,8.91,.07,17.83-.01,26.74-.09,9.21-5.66,15.02-14.89,15.13-14.1,.17-28.21,.18-42.31,0-9.22-.12-14.79-5.95-14.87-15.16-.08-9.18-.09-18.36,0-27.54,.09-8.87,5.44-14.53,14.3-14.83,7.31-.25,14.63-.05,21.95-.05,0,0,0-.02,0-.02Zm-22.39,43.52h44.23v-29.52h-44.23v29.52Z"/>
  <path d="M248.24,278.07c6.79,0,13.57-.07,20.35,0,10.31,.13,15.71,5.57,15.76,15.84,.04,8.91,.07,17.83-.01,26.74-.09,8.99-5.61,14.86-14.62,14.99-14.23,.22-28.47,.2-42.7,0-9.2-.13-14.66-5.97-14.74-15.27-.08-9.05-.08-18.09,0-27.14,.08-9.36,5.44-14.9,14.81-15.14,7.05-.18,14.1-.04,21.15-.04Zm22.22,43.63v-29.61h-44.25v29.61h44.25Z"/>
  <path d="M336.4,278.06c6.65,0,13.3-.07,19.96,.02,10.34,.13,15.75,5.56,15.8,15.81,.04,8.78,.06,17.56,0,26.34-.07,9.65-5.7,15.38-15.4,15.46-13.83,.11-27.67,.13-41.51,0-9.5-.1-15.08-5.78-15.18-15.26-.1-9.05-.1-18.09,0-27.14,.1-9.55,5.55-14.92,15.19-15.21,.27,0,.53,0,.8,0,6.78,0,13.57,0,20.35,0Zm21.88,14.06h-44.22v29.54h44.22v-29.54Z"/>
  <path d="M72.78,189.29c-6.92,0-13.84,.09-20.76-.02-9.84-.15-15.31-5.66-15.38-15.41-.06-8.91-.06-17.83,0-26.74,.07-9.65,5.71-15.37,15.42-15.44,13.7-.1,27.41-.09,41.11,0,9.96,.07,15.49,5.69,15.57,15.69,.07,8.78,.07,17.56,0,26.34-.08,10.03-5.5,15.44-15.61,15.57-6.78,.09-13.57,.02-20.36,.02Zm-22.28-14.05h44.41v-29.58H50.5v29.58Z"/>
  <path d="M336.12,189.29c-6.92,0-13.84,.09-20.76-.02-9.84-.16-15.23-5.62-15.32-15.46-.08-8.91-.09-17.83,0-26.74,.1-9.69,5.71-15.32,15.46-15.39,13.7-.1,27.41-.1,41.11,0,9.91,.07,15.47,5.78,15.53,15.74,.05,8.91,.07,17.83,0,26.74-.08,9.29-5.54,14.88-14.87,15.09-7.05,.16-14.1,.03-21.15,.03Zm-22.23-14.07h44.41v-29.55h-44.41v29.55Z"/>
  <path d="M248.05,262.47c-6.92,0-13.84,.05-20.76-.01-9.2-.09-14.92-5.76-15.01-14.96-.09-9.18-.09-18.36,0-27.54,.09-9.26,5.75-14.97,14.92-15.02,14.1-.07,28.21-.07,42.31,0,8.96,.05,14.72,5.77,14.82,14.72,.1,9.31,.1,18.63,0,27.94-.09,9.13-5.88,14.77-15.13,14.85-7.05,.06-14.1,.01-21.16,.01Zm-21.96-14.01h44.28v-29.54h-44.28v29.54Z"/>
  <path d="M160.49,262.46c-7.05,0-14.11,.06-21.16-.02-8.96-.1-14.76-5.8-14.85-14.72-.1-9.45-.12-18.9,0-28.34,.11-8.67,5.94-14.4,14.68-14.45,14.24-.08,28.48-.08,42.71,0,8.74,.05,14.52,5.77,14.63,14.48,.13,9.58,.14,19.16,0,28.74-.13,8.44-5.96,14.07-14.46,14.3-.27,0-.53,0-.8,0-6.92,0-13.84,0-20.76,0Zm-22.16-13.9h44.21v-29.76h-44.21v29.76Z"/>
  <path d="M336.18,204.91c7.05,0,14.11-.06,21.16,.02,8.94,.09,14.7,5.8,14.8,14.76,.1,9.31,.1,18.63,0,27.94-.1,8.96-5.85,14.75-14.77,14.81-14.24,.09-28.48,.1-42.71,0-8.69-.06-14.44-5.81-14.58-14.57-.15-9.45-.15-18.9,0-28.34,.14-8.96,5.91-14.47,14.94-14.61,.27,0,.53,0,.8,0,6.79,0,13.57,0,20.36,0Zm22.17,13.95h-44.35v29.65h44.35v-29.65Z"/>
  <path d="M72.94,204.92c7.05,0,14.11-.07,21.16,.02,8.72,.11,14.48,5.74,14.62,14.51,.15,9.58,.16,19.16-.01,28.74-.16,8.48-5.98,14.18-14.49,14.25-14.37,.11-28.74,.11-43.11,0-8.48-.07-14.31-5.88-14.43-14.32-.14-9.58-.13-19.16,0-28.74,.12-8.66,5.97-14.34,14.71-14.43,7.18-.08,14.37-.02,21.56-.02Zm-22.37,13.83v29.76h44.22v-29.76H50.58Z"/>
  <path d="M160.32,189.29c-6.79,0-13.57,.08-20.36-.02-10.04-.14-15.45-5.63-15.5-15.67-.05-8.91-.07-17.83,0-26.74,.08-9.23,5.65-15.05,14.87-15.16,14.1-.17,28.21-.16,42.31,0,9.23,.11,14.8,5.89,14.89,15.13,.09,9.18,.09,18.36,0,27.54-.09,9.08-5.53,14.64-14.65,14.87-7.18,.18-14.37,.04-21.55,.04h0Zm22.37-13.92v-29.69h-44.29v29.69h44.29Z"/>
  <path d="M248.09,189.29c-6.79,0-13.57,.08-20.36-.02-10.04-.14-15.41-5.62-15.47-15.7-.05-8.91-.08-17.83,.01-26.74,.09-9.24,5.65-15.02,14.89-15.13,14.1-.16,28.21-.17,42.31,0,9.22,.11,14.79,5.93,14.87,15.15,.08,9.18,.09,18.36,0,27.54-.09,9.01-5.6,14.51-14.69,14.88-.27,.01-.53,.01-.8,.01-6.92,0-13.84,0-20.76,0Zm-21.89-43.63v29.55h44.3v-29.55h-44.3Z"/>
  <path d="M336.04,101.62c-2.78-.12-5.58-.08-8.34-.4-3.57-.41-5.45-2.9-5.63-6.21-.18-3.32,1.47-6.4,4.97-6.65,6.04-.44,12.16-.46,18.19,.03,3.47,.28,5.07,3.34,4.86,6.72-.22,3.38-2.17,5.77-5.7,6.11-2.76,.27-5.56,.05-8.34,.05,0,.12,0,.23,0,.35Z"/>
</svg>