<?xml version="1.0" encoding="UTF-8"?>
<svg id="Layer_1" data-name="Layer 1" xmlns="http://www.w3.org/2000/svg" viewBox="0 0 295.18 347.31">
  <path d="M159.54,223.74c-.07,6.79-5.41,11.81-12.75,11.84-4.14,.02-8.29,.03-12.43,.03-6.21,0-12.42,0-18.62,0s-12.47,0-18.71,0c-4.11,0-8.23,0-12.35-.02-7.63-.03-12.94-4.97-12.95-11.97-.02-7.05,5.23-12.01,12.87-12.02,10.38-.02,20.75-.03,31.12-.03s20.66,.01,30.99,.03c7.51,0,12.91,5.19,12.83,12.14Z"/>
  <path d="M223.37,143.86c-.05,6.76-5.1,11.76-12.32,11.79-9.28,.04-18.56,.05-27.84,.05-11.93,0-23.86-.02-35.79-.02-12.09,.01-24.18,.02-36.27,.02-8.88,0-17.75-.01-26.62-.03-7.24-.02-12.35-4.51-12.76-10.96-.42-6.5,3.6-11.67,10.04-12.79,1.47-.25,2.98-.26,4.47-.26,27.84-.01,55.68-.01,83.52-.01h38.89c.49,0,.97,0,1.45,0,.39,0,.78,0,1.17,.03,7.11,.39,12.12,5.46,12.06,12.19Z"/>
  <g>
    <path d="M295.16,112.68c-.02-15.71,.07-31.45-3.13-46.95-4.08-19.7-14.87-33.76-34.34-40.3-4.57-1.53-9.35-2.41-13.22-3.39-1.27-5.15-1.78-10.21-3.8-14.57-2.17-4.7-6.76-7.29-11.86-7.29-.25,0-.51,.01-.76,.02-3.53,.18-7.38,1.47-10.37,3.39-5.68,3.66-6.48,9.91-6.35,16.12h-47.62c-1.39-13.22-6.11-19.52-15.36-19.52h-.38c-3.49,.06-7.37,1.55-10.32,3.52-5.5,3.65-6.4,9.72-5.96,16.09h-47.75c-1.36-13.33-6.68-19.8-16.11-19.8h-.32c-10.02,.15-14.5,6.24-16.05,22.02-2.74,.58-5.31,1.07-7.86,1.67C23.44,28.45,10.04,40.39,4.37,60.58,1,72.58,.14,84.91,.11,97.26c-.12,57.64-.2,115.29,.09,172.93,.05,10.54,1.1,21.22,3.05,31.58,4.19,22.22,17.46,36.78,39.8,41.52,10.9,2.31,22.21,3.35,33.37,3.64,11.57,.3,23.13,.38,34.7,.38s22.04-.07,33.06-.09c4.73,0,9.49-.26,14.17-.92,14.48-2.02,24.75-9.6,29.24-23.8,1.68-5.3,2.93-10.9,3.23-16.43,.54-9.57-.04-19.19,.26-28.78,.54-17.54,10.76-30.57,26.72-33.15,3.99-.64,8.06-.8,12.15-.8,3.41,0,6.83,.11,10.22,.14,.62,.01,1.24,.01,1.87,.01,10.04,0,19.9-.93,29.3-4.89,14.88-6.25,23.79-19.64,23.8-35.7,.03-30.07,.07-60.14,.02-90.22Zm-18,74.79l-.02,15.41c0,8.87-4.54,15.67-12.78,19.13-5.8,2.44-12.48,3.48-22.32,3.48-.56,0-1.12,0-1.68-.01-1.3-.01-2.62-.03-3.93-.06-2.1-.04-4.26-.08-6.48-.08-5.96,0-10.59,.32-15.02,1.03-24.22,3.92-41.04,24.16-41.84,50.36-.14,4.58-.1,9.06-.06,13.39,.04,5.23,.09,10.17-.18,14.95-.19,3.5-1.01,7.54-2.42,12.01-1.86,5.88-5.05,10.06-14.58,11.4-3.53,.49-7.36,.74-11.7,.74-4.72,.01-9.45,.03-14.17,.05-6.19,.02-12.58,.04-18.86,.04-13.75,0-24.31-.11-34.23-.37-11.31-.3-21.16-1.36-30.11-3.26-14.71-3.12-22.92-11.78-25.84-27.25-1.77-9.41-2.69-18.94-2.74-28.33-.3-58.7-.21-117.56-.09-172.81,.03-13.3,1.14-23.12,3.59-31.84,3.05-10.87,10.69-18.49,21.1-22.73,15.78-6.42,32.92-5.36,49.56-5.28,17.76,.08,35.52,.17,53.28,.25,1.78,0,3.55,.02,5.33,.02h63.12c16.06,0,38.88,.34,51.08,12.65,4.57,4.61,7.54,10.83,9.23,19.02,2.72,13.14,2.74,26.97,2.76,41.61v1.73c.05,24.91,.02,50.24,0,74.75Z"/>
    <path d="M270.08,282.93c-.33,1.06-.69,2.11-1.07,3.15-6.71,18.5-18.79,30.03-37.81,35.94,2.04-10.66,2.33-20.75,2.21-29.36-.03-2.19-.12-4.28-.21-6.29-.02-.42-.04-.84-.05-1.25,1.19,.01,2.39,.03,3.63,.05,2.51,.04,5.11,.07,7.73,.07,3.52,0,6.47-.07,9.29-.21,5.6-.28,11.02-.98,16.28-2.09m23.34-28.94c-.93,.49-1.37,.68-1.77,.94-11.79,7.66-24.86,11.41-38.75,12.11-2.79,.14-5.59,.19-8.39,.19-4.98,0-9.96-.14-14.95-.14-.56,0-1.12,0-1.69,0-9.78,.07-12.8,3.05-12.86,12.73-.02,4.36,.33,8.72,.39,13.08,.22,16.48-1.49,32.59-9.39,47.47-.79,1.5-1.63,2.97-3.05,5.54,9.78-1.75,18.68-2.86,27.33-4.97,26.91-6.56,46.05-22.28,55.63-48.72,4.4-12.14,6.24-24.8,7.49-38.23h0Z"/>
  </g>
</svg>