<?xml version="1.0" encoding="UTF-8"?>
<svg id="Layer_1" data-name="Layer 1" xmlns="http://www.w3.org/2000/svg" viewBox="0 0 295.18 347.32">
  <path d="M51.46,22.02C53.01,6.24,57.49,.15,67.51,0c9.64-.14,15.06,6.32,16.43,19.8h47.75c-.44-6.37,.46-12.44,5.96-16.09,2.95-1.96,6.83-3.45,10.32-3.52,9.5-.17,14.34,6.13,15.74,19.52h47.62c-.13-6.21,.67-12.46,6.35-16.12,2.98-1.92,6.84-3.21,10.37-3.38,5.4-.27,10.34,2.34,12.62,7.27,2.02,4.36,2.53,9.41,3.8,14.57,3.86,.98,8.65,1.86,13.21,3.4,19.47,6.53,30.27,20.6,34.34,40.3,3.21,15.5,3.11,31.24,3.13,46.95,.05,30.07,0,60.14-.02,90.21-.01,16.07-8.92,29.45-23.8,35.71-9.98,4.2-20.48,4.99-31.17,4.88-7.46-.08-15.07-.52-22.37,.66-15.97,2.58-26.18,15.61-26.72,33.14-.3,9.59,.28,19.22-.25,28.79-.31,5.53-1.56,11.13-3.23,16.43-4.49,14.2-14.76,21.77-29.24,23.8-4.68,.66-9.44,.91-14.17,.92-22.59,.04-45.18,.3-67.76-.29-11.16-.29-22.47-1.33-33.37-3.64-22.34-4.74-35.61-19.3-39.79-41.52-1.95-10.36-3-21.04-3.05-31.58C-.09,212.55-.01,154.9,.11,97.26c.03-12.35,.88-24.67,4.26-36.68C10.04,40.39,23.44,28.45,43.6,23.7c2.55-.6,5.12-1.09,7.86-1.67Zm95.96,133.66c21.21,0,42.43,.05,63.64-.03,7.22-.03,12.26-5.03,12.32-11.8,.06-6.73-4.95-11.8-12.06-12.18-.87-.05-1.75-.02-2.62-.02-40.8,0-81.61,0-122.41,0-1.49,0-3.01,0-4.47,.26-6.45,1.12-10.47,6.29-10.05,12.79,.41,6.45,5.52,10.94,12.76,10.96,20.96,.05,41.93,.02,62.89,.01Zm-31.68,79.91c10.35,0,20.7,.04,31.06-.01,7.33-.04,12.67-5.05,12.75-11.85,.08-6.95-5.32-12.13-12.83-12.14-20.7-.03-41.41-.03-62.11,0-7.64,.01-12.89,4.97-12.87,12.02,.02,7,5.32,11.94,12.96,11.97,10.35,.04,20.7,0,31.06,0Z"/>
  <path d="M293.43,253.99c-1.25,13.42-3.09,26.09-7.49,38.23-9.58,26.44-28.72,42.16-55.63,48.72-8.65,2.11-17.54,3.22-27.33,4.97,1.42-2.57,2.26-4.05,3.05-5.54,7.9-14.88,9.61-30.99,9.39-47.47-.06-4.36-.42-8.72-.39-13.08,.05-9.68,3.08-12.66,12.86-12.73,8.34-.06,16.7,.37,25.02-.05,13.9-.7,26.97-4.46,38.75-12.11,.4-.26,.84-.45,1.77-.94Z"/>
</svg>