<?xml version="1.0" encoding="utf-8"?>
<!-- Generator: Adobe Illustrator 26.5.0, SVG Export Plug-In . SVG Version: 6.00 Build 0)  -->
<svg version="1.1" id="Layer_1" xmlns="http://www.w3.org/2000/svg" xmlns:xlink="http://www.w3.org/1999/xlink" x="0px" y="0px"
	 viewBox="0 0 24 24" style="enable-background:new 0 0 24 24;" xml:space="preserve">
<path d="M17.5,5.7c0,0-0.2-1.1-0.2-2.1s0.2-2.1,0.2-2.1c0.1-0.4,0.4-0.7,0.8-0.8c0,0,1.1-0.2,2.1-0.2c1,0,2.1,0.2,2.1,0.2
	c0.4,0.1,0.7,0.4,0.8,0.8c0,0,0.2,1.1,0.2,2.1s-0.2,2.1-0.2,2.1c-0.1,0.4-0.4,0.7-0.8,0.8c0,0-1.1,0.2-2.1,0.2c-1,0-2.1-0.2-2.1-0.2
	C17.9,6.5,17.5,6.1,17.5,5.7z M22.5,9.1c0,0-1.1-0.2-2.1-0.2c-1,0-2.1,0.2-2.1,0.2c-0.4,0.1-0.7,0.4-0.8,0.8c0,0-0.2,1.1-0.2,2.1
	s0.2,2.1,0.2,2.1c0.1,0.4,0.4,0.7,0.8,0.8c0,0,1.1,0.2,2.1,0.2c1,0,2.1-0.2,2.1-0.2c0.4-0.1,0.7-0.4,0.8-0.8c0,0,0.2-1.1,0.2-2.1
	s-0.2-2.1-0.2-2.1C23.2,9.5,22.9,9.2,22.5,9.1z M22.5,17.5c0,0-1.1-0.2-2.1-0.2c-1,0-2.1,0.2-2.1,0.2c-0.4,0.1-0.7,0.4-0.8,0.8
	c0,0-0.2,1.1-0.2,2.1c0,1,0.2,2.1,0.2,2.1c0.1,0.4,0.4,0.7,0.8,0.8c0,0,1.1,0.2,2.1,0.2c1,0,2.1-0.2,2.1-0.2
	c0.4-0.1,0.7-0.4,0.8-0.8c0,0,0.2-1.1,0.2-2.1c0-1-0.2-2.1-0.2-2.1C23.2,17.9,22.9,17.5,22.5,17.5z M9.7,8.2C10,8.6,10.5,8.9,11,8.9
	c0.3,0,0.7-0.1,0.9-0.3C13,7.7,14,6.7,14.8,5.6c0.4-0.6,0.4-1.3,0-1.9C14,2.6,13,1.6,11.9,0.8c-0.7-0.5-1.7-0.4-2.2,0.3
	c-0.5,0.6-0.4,1.5,0.1,2c-6.4,0.1-9.3,3.1-9.3,9.7c0,6.7,3,9.7,9.7,9.7h3.4c0.9,0,1.6-0.7,1.6-1.6c0-0.9-0.7-1.6-1.6-1.6h-3.4
	c-4.9,0-6.5-1.6-6.5-6.5c0-4.8,1.5-6.4,6.1-6.5C9.3,6.8,9.2,7.6,9.7,8.2z"/>
</svg>
