<?xml version="1.0" encoding="UTF-8"?>
<svg id="Layer_1" data-name="Layer 1" xmlns="http://www.w3.org/2000/svg" viewBox="0 0 300 299.78">
  <path d="M263.13,42.85c-8.3-8.36-16.04-16.2-23.84-23.98-3.1-3.09-4.42-6.68-3.27-10.94,2.11-7.83,11.59-10.57,17.62-5,4.17,3.85,8.08,8,12.1,12.02,10.01,10.01,20.03,20.01,30.03,30.04,5.65,5.67,5.64,11.49-.04,17.19-13.55,13.57-27.11,27.13-40.68,40.67-5.25,5.24-11.66,5.67-16.24,1.14-4.66-4.62-4.18-11.05,1.21-16.47,7.53-7.57,15.04-15.16,22.86-23.05-1.23-.09-2.16-.21-3.09-.21-57.86,0-115.73-.05-173.59,0-30.27,.03-53.83,23.64-53.94,53.88-.04,10.14,0,20.29-.01,30.43-.01,7.11-4.36,11.97-10.67,11.99-6.31,.02-10.79-4.86-10.72-11.93,.14-13.37-.4-26.8,.75-40.09,2.73-31.38,28.86-59.02,60.02-64.3,5.25-.89,10.63-1.34,15.95-1.35,57.08-.09,114.17-.06,171.25-.06h4.3Z"/>
  <path d="M36.96,235.52h3.48c57.75,0,115.5,.03,173.25-.02,26.26-.02,47.72-17.51,52.99-43.15,.73-3.57,.99-7.29,1.04-10.95,.14-10.14,.03-20.29,.05-30.43,.02-7.03,4.51-11.87,10.86-11.78,6.17,.09,10.59,4.91,10.52,11.79-.13,13.37,.41,26.8-.75,40.08-2.75,31.59-28.9,59.22-60.22,64.47-5.25,.88-10.63,1.32-15.95,1.33-56.86,.09-113.72,.06-170.57,.06h-4.65c.91,1.07,1.45,1.79,2.08,2.43,7.1,7.09,14.23,14.15,21.31,21.26,5.02,5.04,5.34,11.5,.86,15.99-4.5,4.51-10.96,4.22-15.99-.8-13.73-13.7-27.45-27.41-41.15-41.14-5.41-5.43-5.48-11.37-.16-16.7,13.93-13.97,27.88-27.93,41.86-41.85,3.67-3.65,8.3-4.42,12.57-2.33,4.02,1.97,6.74,6.28,5.83,10.67-.53,2.56-1.94,5.27-3.74,7.18-7.5,7.94-15.29,15.59-23.5,23.89Z"/>
</svg>