<?xml version="1.0" encoding="utf-8"?>
<!-- Generator: Adobe Illustrator 26.5.0, SVG Export Plug-In . SVG Version: 6.00 Build 0)  -->
<svg version="1.1" id="Outline" xmlns="http://www.w3.org/2000/svg" xmlns:xlink="http://www.w3.org/1999/xlink" x="0px" y="0px"
	 viewBox="0 0 512 512" style="enable-background:new 0 0 512 512;" xml:space="preserve">
<path d="M353.2,341.4l-49.7-49.7c29.2-35.7,23.9-88.2-11.8-117.4s-88.2-23.9-117.4,11.8s-23.9,88.2,11.8,117.4
	c30.7,25.1,74.9,25.1,105.6,0l49.7,49.7c3.3,3.2,8.6,3.1,11.8-0.2C356.3,349.8,356.3,344.6,353.2,341.4z M239.1,305.7
	c-36.8,0-66.6-29.8-66.6-66.6s29.8-66.6,66.6-66.6s66.6,29.8,66.6,66.6C305.6,275.8,275.8,305.6,239.1,305.7z"/>
</svg>
