<?xml version="1.0" encoding="UTF-8"?>
<svg id="Layer_1" data-name="Layer 1" xmlns="http://www.w3.org/2000/svg" viewBox="0 0 359.29 340.23">
  <path d="M356.3,138.03c-1.73-8.86-7.17-14.6-15.79-17.24-2.01-.61-4.16-.77-6.22-1.26-27.76-6.53-43.12-34.68-33.76-61.82,3.6-10.45,1.44-19.33-6.54-26-15.63-13.08-33.01-23.18-52.15-30.2-9.34-3.42-18.41-.92-25.07,6.54-2.73,3.05-5.56,6.13-8.8,8.61-20.08,15.38-47.64,12.13-64.47-7.45C135.6,.02,127.02-2.12,115.74,2.17c-16.67,6.33-32.02,15-46.07,25.97-8.94,6.99-11.38,16.17-7.83,26.97,1.58,4.8,2.92,9.89,3.13,14.9,1.03,25.05-16.37,45.23-41.36,48.5-11.21,1.47-18.51,8.32-20.53,19.16-3.74,20.05-4.12,40.14-.87,60.3,1.56,9.65,8.78,17.01,18.43,18.62,3.19,.53,6.43,.95,9.53,1.83,27.26,7.78,41.06,37.04,30.05,63.57-4.45,10.71-2.27,20.37,6.16,27.27,14.58,11.94,30.61,21.41,48.14,28.32,13.39,5.28,21.8,2.82,30.73-8.6,9.25-11.84,21.54-18.01,36.54-18.06,15.59-.05,28.19,6.45,37.78,18.73,4.5,5.77,10.35,8.8,19.21,9.05,1.46-.36,4.47-.75,7.19-1.84,17.12-6.9,32.81-16.25,47.01-28.05,8.08-6.72,10.48-16.04,6.83-25.93-11.09-30.07,5.84-59.11,37.45-64.23,9.85-1.59,17.12-8.51,18.97-18.16,4-20.81,4.15-41.65,.07-62.46Zm-177.02,103.9c-39.73-.15-71.59-32.53-71.48-72.63,.11-39.32,32.81-71.33,72.64-71.1,39.13,.21,71.22,32.65,71.09,71.87-.13,39.91-32.41,72.02-72.25,71.86Z"/>
  <path d="M227.57,170.31c-.03,26.1-21.57,47.64-47.67,47.68-26.46,.04-48.07-21.32-48.15-47.59-.08-26.64,21.26-48.15,47.86-48.24,26.47-.1,47.99,21.51,47.96,48.15Z"/>
</svg>