<?xml version="1.0" encoding="UTF-8"?>
<svg id="Layer_1" data-name="Layer 1" xmlns="http://www.w3.org/2000/svg" viewBox="0 0 359.3 340.23">
  <path d="M251.51,170.12c-.13,39.92-32.41,72.02-72.25,71.86-39.73-.15-71.59-32.53-71.48-72.63,.11-39.32,32.81-71.32,72.63-71.1,39.14,.22,71.22,32.66,71.09,71.87Zm-71.63,47.92c26.1-.04,47.64-21.58,47.67-47.69,.03-26.64-21.49-48.25-47.96-48.15-26.6,.09-47.94,21.61-47.86,48.24,.08,26.28,21.69,47.64,48.15,47.6Z"/>
  <path d="M238.78,338.7c-8.86-.25-14.7-3.28-19.21-9.05-9.59-12.28-22.19-18.78-37.78-18.73-15,.05-27.29,6.22-36.54,18.06-8.93,11.42-17.34,13.88-30.73,8.61-17.53-6.91-33.56-16.38-48.14-28.32-8.43-6.9-10.61-16.57-6.16-27.27,11.01-26.53-2.78-55.79-30.05-63.56-3.1-.88-6.34-1.3-9.53-1.84-9.64-1.6-16.87-8.96-18.42-18.62-3.25-20.16-2.87-40.24,.87-60.29,2.02-10.85,9.32-17.69,20.53-19.16,24.99-3.27,42.39-23.46,41.36-48.5-.21-5.01-1.55-10.1-3.13-14.91-3.55-10.8-1.11-19.98,7.84-26.97,14.05-10.97,29.4-19.64,46.06-25.97,11.29-4.29,19.86-2.15,27.76,7.04,16.83,19.58,44.38,22.83,64.47,7.45,3.24-2.48,6.06-5.56,8.79-8.61,6.66-7.45,15.73-9.96,25.07-6.53,19.14,7.02,36.52,17.12,52.15,30.2,7.98,6.67,10.14,15.55,6.53,26-9.36,27.14,6.01,55.29,33.76,61.82,2.06,.48,4.21,.65,6.22,1.26,8.62,2.64,14.06,8.37,15.79,17.24,4.08,20.81,3.93,41.64-.07,62.46-1.86,9.65-9.12,16.57-18.97,18.17-31.61,5.12-48.54,34.16-37.45,64.22,3.65,9.9,1.25,19.22-6.83,25.93-14.2,11.8-29.89,21.15-47.01,28.05-2.72,1.1-5.74,1.48-7.19,1.84Zm-1.12-23.96c13.94-5.73,26.49-13.29,37.89-22.73,.79-.66,.92-2.88,.52-4.09-4.84-14.69-5.34-29.53-.39-44.13,8.94-26.38,27.29-42.53,54.62-48.28,1.83-.39,3.2-.73,3.51-3.03,2.05-15.31,2.17-30.58-.32-45.87-.36-2.21-1.18-3.07-3.38-3.54-41.06-8.7-65.42-50.24-53.04-90.49,.69-2.23,.5-3.5-1.42-5.01-11.76-9.21-24.5-16.66-38.36-22.26-2.1-.85-3.22-.55-4.73,1.13-28.49,31.65-77.26,31.72-105.62,.15-1.58-1.76-2.75-2.17-5.03-1.24-12.41,5.1-23.98,11.61-34.78,19.56-2.04,1.5-2.54,2.72-1.69,5.18,3.82,10.93,4.65,22.18,2.73,33.58-5.03,29.85-27.85,52.74-57.92,58.06-2.7,.48-3.86,1.36-4.33,4.3-2.36,14.9-2.44,29.81-1.14,44.78,.19,2.17,1.14,2.88,3.22,3.22,44.37,7.28,70.71,52.53,55.01,94.57-.89,2.38-.71,3.65,1.38,5.26,11.35,8.7,23.66,15.68,36.8,21.29,2.66,1.13,4,.6,5.87-1.56,19.52-22.49,43.89-30.68,72.92-23.75,15.32,3.65,27.6,12.39,37.69,24.89Z"/>
</svg>