<?xml version="1.0" encoding="UTF-8"?>
<svg id="Layer_1" data-name="Layer 1" xmlns="http://www.w3.org/2000/svg" viewBox="0 0 383.38 383.03">
  <path d="M297.99,383.03h-8.98c-1.21-.22-2.42-.53-3.64-.65-27.79-2.71-49.79-15.51-66.1-38.06-1.73-2.4-3.42-3.3-6.34-3.3-65.93,.08-131.87,0-197.8,.16-6.94,.02-12.06-1.91-15.11-8.31V28.22c2.69-6.51,7.6-8.87,14.52-8.57,8.09,.35,16.21,.08,24.32,.08,1.95,0,3.91,0,6.1,0,0-3.13-.07-5.74,.01-8.35C45.15,5.02,49.96,.1,56.03,0c6.19-.1,11.18,4.92,11.35,11.48,.06,2.59,.01,5.19,.01,8.02h22.47c0-2.71-.04-5.19,0-7.66C89.99,5.02,94.96-.12,101.26,0c6.24,.12,10.94,5.1,11.05,11.78,.04,2.56,0,5.12,0,7.74h22.47c0-2.8-.06-5.4,.01-7.98C134.97,4.97,139.93-.06,146.11,0c6.23,.07,11,5.06,11.12,11.7,.05,2.57,0,5.14,0,7.83h22.47c0-2.89-.08-5.6,.02-8.31C179.95,4.91,184.92,0,190.96,0c6.08,.01,10.98,4.91,11.18,11.26,.09,2.7,.01,5.41,.01,8.18h22.47c0-2.79-.05-5.27,0-7.76C224.78,5.07,229.61,.04,235.81,0c6.2-.04,11.12,4.97,11.27,11.56,.06,2.59,0,5.17,0,7.91h22.47c0-2.87-.07-5.49,.01-8.1,.2-6.37,5.02-11.28,11.09-11.37,6.19-.09,11.18,4.93,11.34,11.48,.06,2.59,.01,5.19,.01,8.01h22.47c0-2.71-.04-5.19,0-7.67,.13-6.8,5.11-11.95,11.4-11.82,6.24,.13,10.93,5.11,11.04,11.79,.04,2.56,0,5.12,0,7.95,1.92,0,3.28,0,4.63,0,9.98,0,19.96-.08,29.94,.04,7.38,.09,11.82,4.65,11.82,12.04,.01,87.31,.16,174.62-.08,261.93-.11,40.82-28.75,76.54-68.43,86.28-5.52,1.36-11.22,2.02-16.84,3.01Zm62.75-270.37H22.78v205.83H205.97c-9.39-43.58,2.01-79.98,40.85-103.03,41.08-24.38,79.68-15.77,113.92,16.42V112.66ZM247.08,42.39c0,3.07,.05,5.79,0,8.52-.14,6.63-4.95,11.63-11.17,11.65-6.18,.02-11.1-5-11.26-11.58-.07-2.83-.01-5.66-.01-8.46h-22.47c0,2.93,.03,5.53,0,8.14-.1,6.87-4.95,11.96-11.3,11.91-6.33-.06-11.06-5.16-11.15-12.07-.04-2.7,0-5.39,0-8.07h-22.47c0,3.05,.06,5.89-.01,8.73-.17,6.41-4.93,11.3-11.03,11.41-6.16,.12-11.21-4.92-11.4-11.44-.08-2.84-.01-5.68-.01-8.66h-22.47c0,2.98,.05,5.71,0,8.43-.13,6.63-4.93,11.63-11.15,11.67-6.18,.04-11.12-4.99-11.28-11.55-.07-2.83-.01-5.66-.01-8.5h-22.47c0,3.04,.05,5.77-.01,8.5-.15,6.59-5.05,11.6-11.26,11.56-6.19-.04-11.03-5.07-11.17-11.67-.06-2.82-.01-5.64-.01-8.5H22.66v47.29H360.64V42.38h-23.51c-.07,1.26-.18,2.34-.19,3.43-.1,11.46-3.73,16.84-11.33,16.75-7.56-.09-11.04-5.39-11.15-16.96-.01-1.08-.13-2.15-.2-3.18h-22.26c0,3.06,.06,5.9-.01,8.74-.17,6.39-4.96,11.29-11.05,11.39-6.16,.1-11.19-4.93-11.37-11.46-.08-2.84-.01-5.68-.01-8.7h-22.47Zm45.9,182.2c-37.26,.03-67.66,30.33-67.76,67.53-.1,37.79,30.54,68.45,68.2,68.25,37.15-.2,67.46-30.73,67.45-67.93,0-37.35-30.55-67.87-67.89-67.84Z"/>
  <path d="M202.41,162.4c-12.48,0-24.31,.02-36.14-.02-1.98,0-4.04-.01-5.92-.54-4.88-1.36-8.03-5.95-7.87-11,.15-4.95,3.38-9.1,8.21-10.36,1.43-.37,2.95-.52,4.43-.52,17.7-.03,35.41-.06,53.11,0,10.14,.03,15.25,7.76,11.2,17-14.54,33.17-29.13,66.32-43.73,99.46-3.05,6.92-9.37,9.68-15.44,6.9-5.93-2.72-8.06-9.16-5.12-15.87,11.7-26.67,23.44-53.32,35.15-79.98,.64-1.46,1.23-2.94,2.11-5.07Z"/>
  <path d="M304.18,281.23c7.49,0,14.46-.02,21.43,0,7.64,.03,12.73,4.48,12.79,11.14,.06,6.8-5.08,11.3-12.97,11.31-10.47,.01-20.95,.03-31.42,0-7.51-.02-12.18-4.53-12.25-12.07-.11-10.85-.11-21.69,0-32.54,.07-7,4.89-11.99,11.23-12,6.4,0,11.09,4.94,11.17,11.97,.08,7.21,.02,14.42,.02,22.18Z"/>
</svg>