<?xml version="1.0" encoding="utf-8"?>
<!-- Generator: Adobe Illustrator 26.5.0, SVG Export Plug-In . SVG Version: 6.00 Build 0)  -->
<svg version="1.1" id="Outline" xmlns="http://www.w3.org/2000/svg" xmlns:xlink="http://www.w3.org/1999/xlink" x="0px" y="0px"
	 viewBox="0 0 512 512" style="enable-background:new 0 0 512 512;" xml:space="preserve">
<path d="M68.1,132.1h46.7c9.2,33.9,44.2,54,78.2,44.8c21.8-5.9,38.8-23,44.8-44.8h206.2c9.4,0,17.1-7.6,17.1-17.1S453.4,98,443.9,98
	H237.7c-9.2-33.9-44.2-54-78.2-44.8c-21.8,5.9-38.8,23-44.8,44.8H68.1c-9.4,0-17.1,7.6-17.1,17.1S58.6,132.1,68.1,132.1z
	 M176.3,85.2c16.5,0,29.9,13.4,29.9,29.9S192.8,145,176.3,145s-29.9-13.4-29.9-29.9C146.4,98.6,159.8,85.2,176.3,85.2z"/>
<path d="M443.9,238.9h-46.7c-9.2-33.9-44.2-54-78.1-44.8c-21.8,5.9-38.9,23-44.8,44.8H68.1c-9.4,0-17.1,7.6-17.1,17.1
	c0,9.4,7.6,17.1,17.1,17.1h206.2c9.2,33.9,44.2,54,78.1,44.8c21.8-5.9,38.9-23,44.8-44.8h46.7c9.4,0,17.1-7.6,17.1-17.1
	C461,246.6,453.4,238.9,443.9,238.9z M335.7,285.9c-16.5,0-29.9-13.4-29.9-29.9s13.4-29.9,29.9-29.9c16.5,0,29.9,13.4,29.9,29.9
	C365.6,272.5,352.2,285.9,335.7,285.9z"/>
<path d="M443.9,379.9H237.7c-9.2-33.9-44.2-54-78.2-44.8c-21.8,5.9-38.8,23-44.8,44.8H68.1c-9.4,0-17.1,7.6-17.1,17.1
	c0,9.4,7.6,17.1,17.1,17.1h46.7C124,448,159,468,193,458.8c21.8-5.9,38.8-23,44.8-44.8h206.2c9.4,0,17.1-7.6,17.1-17.1
	C461,387.5,453.4,379.9,443.9,379.9z M176.3,426.8c-16.5,0-29.9-13.4-29.9-29.9c0-16.5,13.4-29.9,29.9-29.9s29.9,13.4,29.9,29.9
	C206.1,413.4,192.8,426.8,176.3,426.8z"/>
</svg>
