<?xml version="1.0" encoding="utf-8"?>
<!-- Generator: Adobe Illustrator 26.5.0, SVG Export Plug-In . SVG Version: 6.00 Build 0)  -->
<svg version="1.1" id="Layer_1" xmlns="http://www.w3.org/2000/svg" xmlns:xlink="http://www.w3.org/1999/xlink" x="0px" y="0px"
	 viewBox="0 0 438.9 438.8" style="enable-background:new 0 0 438.9 438.8;" xml:space="preserve">
<path d="M219.6,94.4c30.9,0,61.7,0,92.6,0c16.3,0,28.9,10.3,31.8,25.8c0.4,2.1,0.5,4.3,0.5,6.5c0,61.7,0,123.4,0,185.2
	c0,16.5-10.1,29-25.6,31.9c-2.2,0.4-4.5,0.5-6.8,0.5c-61.7,0-123.4,0-185.1,0c-16.4,0-29-10.2-31.9-25.7c-0.4-2-0.5-4.2-0.5-6.2
	c0-62.1-0.1-124.2,0-186.3c0-16,10.4-28.4,25.7-31.3c2.4-0.5,4.9-0.5,7.4-0.5C158.3,94.4,188.9,94.4,219.6,94.4z"/>
</svg>
