<?xml version="1.0" encoding="utf-8"?>
<!-- Generator: Adobe Illustrator 26.5.0, SVG Export Plug-In . SVG Version: 6.00 Build 0)  -->
<svg version="1.1" id="Layer_1" xmlns="http://www.w3.org/2000/svg" xmlns:xlink="http://www.w3.org/1999/xlink" x="0px" y="0px"
	 viewBox="0 0 319.3 319.3" style="enable-background:new 0 0 319.3 319.3;" xml:space="preserve">
<g>
	<path d="M259.6,118.9c0-4.8-0.3-9.7-1.1-14.5c-2.5-15.4-9.6-28-23.2-36.3c-8.8-5.4-18.5-8-28.7-8.2c-15.6-0.3-31.2-0.1-46.9-0.1
		v-0.1c-13.7,0-27.3-0.1-41,0.1c-5.6,0.1-11.3,0.5-16.7,1.5c-17.4,3.4-30.3,12.9-37.4,29.4c-3.9,9-5,18.5-5,28.2
		c0.1,27.2,0,54.4,0.1,81.6c0,4.9,0.3,9.9,1.1,14.7c2.5,15,9.3,27.4,22.4,35.7c9.7,6.1,20.5,8.7,31.9,8.8c29.1,0.1,58.3,0.1,87.4,0
		c4.1,0,8.3-0.3,12.4-1c18.3-3.1,32.2-12.3,39.7-29.8c3.9-9,5.1-18.4,5-28.1C259.6,173.4,259.7,146.1,259.6,118.9z M163.7,120.8
		c16.9,0,33.9,0,50.8,0c4.5,0,7.5,2.5,8.1,6.5c0.5,3.6-1.7,7.1-5.2,8.1c-1,0.3-2.2,0.3-3.2,0.3c-8.5,0-17,0-25.5,0s-16.7,0-25.1,0
		c-5,0-8.3-3-8.3-7.5C155.3,124,158.7,120.8,163.7,120.8z M139.8,188.1c-7.6,8-15.5,15.8-23.5,23.5c-2.8,2.7-7.2,2.3-10-0.4
		c-2.6-2.5-5.1-5-7.6-7.6c-3-3.1-3-7.3-0.1-10.3c2.8-2.9,7.3-3.1,10.4-0.5c0.9,0.7,1.7,1.6,2.7,2.5c5.6-5.6,11.2-11.2,16.7-16.8
		c2.2-2.2,4.8-3,7.7-2.2C141.2,177.6,143.5,184.2,139.8,188.1L139.8,188.1z M146.5,148.5H90.3v-47.5h56.2V148.5z M214.7,205.9
		c-8.6,0.1-17.2,0-25.8,0s-17.2,0-25.8,0c-3.9,0-6.9-2.3-7.7-5.6c-0.8-3.2,0.5-6.6,3.5-8.2c1.2-0.7,2.8-1.1,4.2-1.1
		c17.3-0.1,34.5-0.1,51.8,0c4.6,0,7.9,3.4,7.8,7.6C222.7,202.7,219.4,205.9,214.7,205.9L214.7,205.9z"/>
	<rect x="100.3" y="110.9" width="36.2" height="27.5"/>
</g>
</svg>
