<?xml version="1.0" encoding="utf-8"?>
<!-- Generator: Adobe Illustrator 26.5.0, SVG Export Plug-In . SVG Version: 6.00 Build 0)  -->
<svg version="1.1" id="Layer_1" xmlns="http://www.w3.org/2000/svg" xmlns:xlink="http://www.w3.org/1999/xlink" x="0px" y="0px"
	 viewBox="0 0 319.3 319.3" style="enable-background:new 0 0 319.3 319.3;" xml:space="preserve">
<path d="M159.8,59.8c15.6,0,31.2-0.2,46.9,0.1c10.2,0.2,19.9,2.8,28.7,8.2c13.6,8.3,20.6,20.9,23.2,36.3c0.8,4.8,1.1,9.6,1.1,14.5
	c0.1,27.3,0,54.5,0.1,81.8c0,9.7-1.2,19.2-5.1,28.1c-7.6,17.4-21.4,26.7-39.7,29.8c-4.1,0.7-8.2,1-12.4,1c-29.1,0.1-58.3,0.1-87.4,0
	c-11.4-0.1-22.2-2.6-31.9-8.8c-13.1-8.3-20-20.7-22.4-35.7c-0.8-4.8-1.1-9.8-1.1-14.7c-0.1-27.2,0-54.4-0.1-81.6
	c0-9.7,1.1-19.2,5-28.2c7.1-16.5,20-26,37.4-29.4c5.5-1.1,11.1-1.4,16.7-1.5c13.7-0.2,27.3-0.1,41-0.1
	C159.8,59.7,159.8,59.8,159.8,59.8L159.8,59.8z M188.7,135.8c8.5,0,17,0,25.5,0c1.1,0,2.2,0,3.2-0.3c3.5-1,5.7-4.6,5.2-8.1
	c-0.6-4-3.7-6.5-8.1-6.5c-16.9,0-33.9,0-50.8,0c-5,0-8.4,3.1-8.4,7.5c0,4.5,3.3,7.5,8.3,7.5C172,135.8,180.4,135.8,188.7,135.8
	L188.7,135.8z M189,205.9c8.6,0,17.2,0,25.8,0c4.6,0,8-3.1,8-7.4c0.1-4.2-3.2-7.6-7.8-7.6c-17.3-0.1-34.5-0.1-51.8,0
	c-1.4,0-3,0.4-4.2,1.1c-3,1.6-4.3,5-3.5,8.2c0.8,3.3,3.8,5.6,7.7,5.6C171.8,205.9,180.4,205.9,189,205.9L189,205.9z M111.6,125.3
	c-0.9-0.9-1.6-1.5-2.3-2.2c-3.3-3-7.8-2.9-10.7,0.1c-2.9,3-2.9,7.3,0.2,10.5c2.2,2.2,4.4,4.4,6.6,6.6c4.1,4.1,8.1,4.1,12.2,0
	c7-6.9,13.9-13.9,20.9-20.9c0.4-0.4,0.8-0.8,1.1-1.2c1.9-2.3,2.3-4.9,1.3-7.7c-1-2.8-3.3-4.3-6.2-4.7c-2.6-0.3-4.7,0.7-6.5,2.6
	C122.8,114.1,117.3,119.6,111.6,125.3L111.6,125.3z M111.6,195.3c-1-0.9-1.8-1.8-2.7-2.5c-3.1-2.6-7.6-2.4-10.4,0.5
	c-2.8,3-2.8,7.2,0.1,10.3c2.5,2.6,5,5.1,7.6,7.6c2.8,2.7,7.2,3.1,10,0.4c7.9-7.7,15.9-15.5,23.5-23.6c3.7-3.9,1.4-10.5-3.7-11.8
	c-2.9-0.8-5.5,0-7.7,2.2C122.8,184.1,117.3,189.6,111.6,195.3L111.6,195.3z"/>
</svg>
