<?xml version="1.0" encoding="utf-8"?>
<!-- Generator: Adobe Illustrator 26.5.0, SVG Export Plug-In . SVG Version: 6.00 Build 0)  -->
<svg version="1.1" id="Layer_1" xmlns="http://www.w3.org/2000/svg" xmlns:xlink="http://www.w3.org/1999/xlink" x="0px" y="0px"
	 viewBox="0 0 512 512" style="enable-background:new 0 0 512 512;" xml:space="preserve">
<path d="M396.8,190.5l-74.3-74.2c-10.8-11.2-28.2-13.1-41.1-4.4c-14.1,10-17.3,29.5-7.3,43.5c1,1.4,2.1,2.8,3.4,4l7.4,7.4
	c3.9,3.9,3.9,10.3,0,14.3l-26.2,26.2c-4.7,4.7-11.5,6.5-17.9,4.9l-10.2-2.6c-11.8-3.1-24.1-4-36.2-2.7
	c-16.3,1.7-30.1,12.7-35.4,28.2c-5.8,16-1.8,33.9,10.2,46l21.8,22.6l-81.1,81.1c-5,4.8-5.1,12.7-0.3,17.7c4.8,5,12.7,5.1,17.7,0.3
	c0.1-0.1,0.2-0.2,0.3-0.3l80.8-80.8l15.6,16.2c10.6,11.2,25.2,17.8,40.6,18.3c5,0,9.9-0.8,14.6-2.5c14.7-5.1,25-18.3,26.3-33.7
	c1.3-12,0.4-24.2-2.7-35.9l-2.6-12.8c-1.5-6.4,0.4-13,5-17.7l26.1-26.1c2-1.9,4.7-2.9,7.4-3c2.4,0,4.8,1,6.5,2.7l6.3,6.3
	c10.8,11.5,28.4,13.5,41.5,4.7c14.1-10,17.4-29.5,7.4-43.5C399.2,193.1,398,191.7,396.8,190.5L396.8,190.5z"/>
</svg>
