<?xml version="1.0" encoding="utf-8"?>
<!-- Generator: Adobe Illustrator 26.5.0, SVG Export Plug-In . SVG Version: 6.00 Build 0)  -->
<svg version="1.1" id="Layer_1" xmlns="http://www.w3.org/2000/svg" xmlns:xlink="http://www.w3.org/1999/xlink" x="0px" y="0px"
	 viewBox="0 0 512 512" style="enable-background:new 0 0 512 512;" xml:space="preserve">
<path d="M124.8,406.1c5,0,9.8-2,13.3-5.5l74.4-74.4l9.1,9.4c12.1,12.7,28.7,20.1,46.2,20.5c6,0,12-1,17.7-3
	c18-6.4,30.8-22.6,32.6-41.7c1.3-12.3,0.4-24.8-2.7-36.7l-0.5-2.5l42.3-42.3l5.6,5.7c8.6,9,22.4,10.6,32.8,3.6
	c11.2-8,13.8-23.5,5.8-34.7c-0.8-1.1-1.7-2.1-2.6-3.1l-87.1-87.3c-8.6-9-22.4-10.6-32.8-3.6c-11.2,8-13.8,23.5-5.8,34.7
	c0.8,1.1,1.7,2.1,2.6,3.1l6.5,6.6L240,197.1c-12.3-3.2-25-4.2-37.6-2.8c-19.9,2-36.7,15.4-43.2,34.3c-7,19.2-2.2,40.8,12.2,55.3
	l15,15.4l-74.9,74.9c-7.3,7.3-7.3,19.2,0,26.5C115,404.2,119.8,406.1,124.8,406.1z M194.5,241.1c1.7-5.2,6.3-9,11.8-9.5
	c8.2-0.9,16.5-0.2,24.4,1.9l10.4,2.6c6.4,1.6,13.2-0.2,17.9-4.9l49.8-49.8l21.9,22l-49.5,49.6c-4.5,4.5-6.4,10.9-5.1,17.1l2.8,13.3
	c2.1,7.9,2.7,16.1,1.8,24.3c-0.2,4.7-3.3,8.8-7.8,10.2c-9.2,2.2-18.7-1.1-24.7-8.4l-50.1-51.8C193.8,253.2,192.4,246.8,194.5,241.1z
	"/>
</svg>
