<?xml version="1.0" encoding="UTF-8"?>
<svg id="Layer_1" data-name="Layer 1" xmlns="http://www.w3.org/2000/svg" viewBox="0 0 383.29 319.26">
  <path d="M383.29,164.12v9.74c-2.17,5.24-3.53,11.04-6.66,15.63-7.55,11.08-18.66,16.09-31.97,14.74-13.91-1.42-23.79-9.06-29.17-22-1.12-2.68-2.33-3.49-5.11-3.44-9.58,.16-19.17,.06-29.04,.06-.16,2.14-.3,3.96-.45,6.03h-12.41c-.14-1.9-.27-3.72-.42-5.74-1.06-.1-2.03-.27-2.99-.28-12.1,0-24.2,.05-36.3-.06-2.35-.02-3.42,.68-4.3,2.95-5.37,13.94-18.36,22.8-32.95,22.75-14.4-.06-27.33-8.91-32.62-22.68-.97-2.51-2.22-3.02-4.63-3.02-27.2,.08-54.39,.09-81.58-.01-2.68-.01-3.8,.83-4.78,3.34-6.36,16.32-23.8,25.42-40.63,21.44C10.19,199.52-1.54,183.28,.17,166.03c1.71-17.23,16.02-31.12,32.8-31.84,18.38-.78,33.42,10.99,36.83,28.83,.17,.85,.4,1.69,.72,3.02h31.62v-12.47h12.84v12.1c1.32,.15,2.26,.36,3.21,.36,11.73,.02,23.45-.06,35.18,.07,2.53,.03,3.37-.84,3.82-3.26,3.17-16.92,17.6-28.78,34.7-28.7,16.9,.08,31.11,11.98,34.33,28.76,.18,.96,.49,1.9,.77,2.97h85.86c.43-1.93,.78-3.75,1.25-5.54,4.19-15.73,18.23-26.36,34.54-26.19,16.08,.17,29.9,11.33,33.77,27.23,.23,.94,.59,1.84,.88,2.75Z"/>
  <path d="M338.5,262.89c-.02-5.2-2.32-7.42-7.63-7.43-15.09-.03-30.17-.01-45.26-.01h-4.24c-.2-2.19-.38-4.12-.56-6.06h-12.39c-.11,2.07-.2,3.8-.32,6.06h-4.36c-15.09,0-30.17-.02-45.26,.01-5.26,.01-7.56,2.23-7.57,7.48-.06,16.34-.06,32.67,0,49,.02,5.08,2.25,7.29,7.35,7.3,37.65,.03,75.3,.03,112.96,0,5.06-.01,7.26-2.26,7.28-7.36,.04-16.33,.04-32.66,0-48.99Zm-101.87,30.55v-12.27h50.53v12.27h-50.53Zm76.04,.13h-12.2v-12.4h12.2v12.4Z"/>
  <path d="M163.68,0C145.35,0,127.01,0,108.68,0s-37.18-.02-55.76,.01c-6.07,0-8.08,2.02-8.09,8.06-.02,15.84-.02,31.68,0,47.52,0,6.18,2.09,8.22,8.36,8.22h110.77c6.45,0,8.48-2.01,8.49-8.49,.02-15.59,.02-31.18,0-46.78,0-6.74-1.87-8.53-8.77-8.54ZM70.57,38.05v-12.31h12.25v12.31h-12.25Zm76.15,.04h-50.66v-12.25h50.66v12.25Z"/>
  <path d="M114.89,76.75v12.32h-12.4v-12.32h12.4Z"/>
  <path d="M114.86,102.34v12.26h-12.4v-12.26h12.4Z"/>
  <path d="M114.83,127.63v12.49h-12.55c0-3.59-.14-7.04,.11-10.46,.05-.73,1.45-1.88,2.28-1.94,3.21-.23,6.44-.09,10.16-.09Z"/>
  <path d="M268.51,210.35v-12.25h12.28v12.25h-12.28Z"/>
  <path d="M268.55,223.46c3.64,0,7.08-.14,10.51,.11,.72,.05,1.85,1.46,1.91,2.31,.23,3.21,.09,6.44,.09,10.01h-12.51v-12.43Z"/>
</svg>