<?xml version="1.0" encoding="UTF-8"?>
<svg id="Layer_1" data-name="Layer 1" xmlns="http://www.w3.org/2000/svg" viewBox="0 0 383.29 319.26">
  <path d="M383.29,173.85c-2.17,5.25-3.54,11.04-6.67,15.64-7.55,11.07-18.66,16.09-31.96,14.73-13.91-1.42-23.79-9.05-29.18-22-1.11-2.67-2.33-3.49-5.1-3.44-9.58,.17-19.17,.06-29.04,.06-.16,2.14-.3,3.96-.45,6.03h-12.4c-.14-1.9-.27-3.72-.42-5.75-1.07-.1-2.03-.27-2.99-.27-12.1-.02-24.2,.05-36.3-.06-2.35-.02-3.43,.68-4.3,2.95-5.37,13.94-18.36,22.81-32.95,22.75-14.4-.06-27.33-8.91-32.63-22.68-.96-2.51-2.22-3.02-4.63-3.02-27.19,.07-54.39,.08-81.58-.02-2.67,0-3.79,.83-4.77,3.34-6.37,16.32-23.8,25.42-40.64,21.44C10.19,199.52-1.55,183.28,.17,166.02c1.71-17.23,16.02-31.12,32.8-31.83,18.38-.79,33.42,10.99,36.83,28.83,.16,.85,.4,1.68,.72,3.02h31.62v-12.48h12.83v12.1c1.32,.15,2.27,.35,3.22,.36,11.73,.02,23.45-.06,35.18,.07,2.53,.03,3.37-.84,3.82-3.26,3.17-16.92,17.6-28.78,34.7-28.7,16.9,.08,31.1,11.98,34.32,28.76,.18,.96,.49,1.9,.77,2.97h85.86c.43-1.93,.78-3.76,1.25-5.54,4.19-15.73,18.22-26.35,34.54-26.18,16.08,.17,29.9,11.32,33.77,27.23,.23,.93,.59,1.83,.88,2.75v9.73Zm-325.63-4.42c.07-12.33-9.88-22.44-22.17-22.54-12.5-.1-22.69,9.98-22.68,22.42,.01,12.23,10.15,22.39,22.37,22.42,12.24,.04,22.41-10.06,22.48-22.3Zm156.43-.2c-.02-12.3-10.06-22.32-22.38-22.34-12.33-.02-22.4,9.95-22.47,22.24-.07,12.4,10.2,22.69,22.56,22.6,12.25-.09,22.31-10.24,22.29-22.5Zm134.21-22.34c-12.37-.08-22.49,9.8-22.62,22.08-.14,12.44,10,22.75,22.39,22.76,12.23,.01,22.4-10.1,22.46-22.34,.06-12.29-9.95-22.43-22.23-22.51Z"/>
  <path d="M268.1,255.44c.12-2.25,.21-3.98,.32-6.06h12.38c.18,1.94,.36,3.87,.56,6.06,1.54,0,2.89,0,4.24,0,15.09,0,30.17-.02,45.26,.01,5.31,.01,7.62,2.23,7.63,7.43,.04,16.33,.04,32.67,0,49-.01,5.09-2.22,7.35-7.28,7.35-37.65,.04-75.3,.03-112.96,0-5.1,0-7.33-2.21-7.35-7.29-.06-16.33-.06-32.67,0-49,.02-5.25,2.31-7.48,7.58-7.49,15.09-.03,30.17-.01,45.26-.01h4.36Zm-44.27,50.77h101.62v-37.77h-101.62v37.77Z"/>
  <path d="M108.67,0c18.34,0,36.67,0,55.01,0,6.9,0,8.76,1.8,8.76,8.54,.02,15.59,.02,31.18,0,46.78,0,6.48-2.03,8.49-8.49,8.49-36.92,0-73.84,0-110.77,0-6.27,0-8.36-2.04-8.37-8.21-.02-15.84-.02-31.68,0-47.52C44.83,2.04,46.85,.02,52.92,.01c18.59-.02,37.17,0,55.76,0ZM57.74,50.83h101.64V13.02H57.74V50.83Z"/>
  <path d="M114.89,76.75v12.32h-12.4v-12.32h12.4Z"/>
  <path d="M114.86,102.34v12.26h-12.4v-12.26h12.4Z"/>
  <path d="M114.83,127.63v12.49h-12.55c0-3.59-.14-7.04,.11-10.46,.05-.73,1.45-1.88,2.28-1.94,3.21-.23,6.44-.09,10.16-.09Z"/>
  <path d="M268.51,210.35v-12.25h12.28v12.25h-12.28Z"/>
  <path d="M268.55,223.46c3.64,0,7.08-.14,10.51,.11,.72,.05,1.85,1.46,1.91,2.31,.23,3.21,.09,6.44,.09,10.01h-12.51v-12.43Z"/>
  <path d="M236.63,293.43v-12.27h50.52v12.27h-50.52Z"/>
  <path d="M312.67,293.57h-12.2v-12.41h12.2v12.41Z"/>
  <path d="M146.71,25.84v12.25h-50.66v-12.25h50.66Z"/>
  <path d="M70.57,25.74h12.25v12.31h-12.25v-12.31Z"/>
</svg>