<?xml version="1.0" encoding="utf-8"?>
<!-- Generator: Adobe Illustrator 26.5.0, SVG Export Plug-In . SVG Version: 6.00 Build 0)  -->
<svg version="1.1" id="Layer_1" xmlns="http://www.w3.org/2000/svg" xmlns:xlink="http://www.w3.org/1999/xlink" x="0px" y="0px"
	 viewBox="0 0 512 512" style="enable-background:new 0 0 512 512;" xml:space="preserve">
<path d="M406,256c0,6.9-5.6,12.5-12.5,12.5c-6.9,0-12.5-5.6-12.5-12.5c-0.08-69-56-124.92-125-125c-6.9,0-12.5-5.6-12.5-12.5
	c0-6.9,5.6-12.5,12.5-12.5C338.81,106.09,405.91,173.19,406,256z M306,268.5c6.9,0,12.5-5.6,12.5-12.5s-5.6-12.5-12.5-12.5h-28.46
	c-2.18-3.74-5.29-6.86-9.04-9.04V193.5c0-6.9-5.6-12.5-12.5-12.5s-12.5,5.6-12.5,12.5v40.96c-11.93,6.87-16.03,22.11-9.16,34.04
	s22.11,16.03,34.04,9.16c3.81-2.19,6.97-5.35,9.16-9.16H306z M128.84,190.8c-6.9,0-12.5,5.6-12.5,12.5c0,6.9,5.6,12.5,12.5,12.5
	c6.9,0,12.5-5.6,12.5-12.5C141.34,196.4,135.74,190.8,128.84,190.8z M131,256c0-6.9-5.6-12.5-12.5-12.5c-6.9,0-12.5,5.6-12.5,12.5
	s5.6,12.5,12.5,12.5C125.4,268.5,131,262.9,131,256z M256,381c-6.9,0-12.5,5.6-12.5,12.5c0,6.9,5.6,12.5,12.5,12.5
	s12.5-5.6,12.5-12.5C268.5,386.6,262.9,381,256,381z M158.76,146.09c-6.9,0-12.5,5.6-12.5,12.5c0,6.9,5.6,12.5,12.5,12.5
	c6.9,0,12.5-5.6,12.5-12.5C171.26,151.68,165.67,146.09,158.76,146.09z M203.24,116.51c-6.9,0-12.5,5.6-12.5,12.5
	c0,6.9,5.6,12.5,12.5,12.5c6.9,0,12.5-5.6,12.5-12.5C215.74,122.11,210.14,116.51,203.24,116.51z M128.84,296.2
	c-6.9,0-12.5,5.6-12.5,12.5s5.6,12.5,12.5,12.5c6.9,0,12.5-5.6,12.5-12.5l0,0C141.34,301.8,135.74,296.2,128.84,296.2L128.84,296.2z
	 M158.76,340.91c-6.9,0-12.5,5.6-12.5,12.5c0,6.9,5.6,12.5,12.5,12.5c6.9,0,12.5-5.6,12.5-12.5
	C171.26,346.51,165.67,340.91,158.76,340.91z M203.24,370.49c-6.9,0-12.5,5.6-12.5,12.5c0,6.9,5.6,12.5,12.5,12.5
	c6.9,0,12.5-5.6,12.5-12.5C215.74,376.08,210.14,370.49,203.24,370.49z M383.16,296.2c-6.9,0-12.5,5.6-12.5,12.5s5.6,12.5,12.5,12.5
	s12.5-5.6,12.5-12.5l0,0C395.66,301.8,390.07,296.2,383.16,296.2L383.16,296.2z M353.24,340.91c-6.9,0-12.5,5.6-12.5,12.5
	c0,6.9,5.6,12.5,12.5,12.5c6.9,0,12.5-5.6,12.5-12.5C365.74,346.51,360.14,340.91,353.24,340.91z M308.76,370.49
	c-6.9,0-12.5,5.6-12.5,12.5c0,6.9,5.6,12.5,12.5,12.5s12.5-5.6,12.5-12.5C321.26,376.08,315.67,370.49,308.76,370.49z"/>
</svg>
