<?xml version="1.0" encoding="UTF-8"?>
<svg id="Layer_1" data-name="Layer 1" xmlns="http://www.w3.org/2000/svg" viewBox="0 0 255.53 319.41">
  <path d="M127.63,319.37c-11.48,0-22.96,.04-34.45,0-35.8-.14-62.55-25.65-65.14-61.38-2.29-31.47-5.25-62.89-7.87-94.34-1.42-17.03-2.92-34.05-4.05-51.1-.59-8.84,5.91-15.96,14.31-16.57,9.11-.66,16.33,5.3,17.31,14.35,.47,4.34,.86,8.69,1.22,13.04,3.09,37.41,6.16,74.83,9.26,112.24,.62,7.46,1.21,14.92,1.99,22.36,1.8,17.17,14.31,29.21,31.56,29.47,23.96,.35,47.93,.34,71.88,0,17.27-.24,30.06-12.27,31.62-29.39,2.4-26.33,4.45-52.69,6.67-79.04,1.93-22.87,3.81-45.74,5.85-68.6,.81-9.12,8.09-15.07,17.2-14.45,8.43,.57,14.98,7.65,14.4,16.49-1.14,17.3-2.69,34.57-4.12,51.84-1.87,22.62-3.72,45.25-5.7,67.86-1.08,12.29-1.5,24.73-3.81,36.8-5.47,28.65-30.83,49.59-59.97,50.3-12.72,.31-25.46,.05-38.19,.05,0,.02,0,.04,0,.06Z"/>
  <path d="M255.16,44.5c-1.6-7.65-8.03-12.57-16.74-12.62-15.6-.08-31.2,.06-46.79-.14-8.58-.11-11.54-3.11-12.37-11.56C178.08,8.21,169.65,.17,157.75,.09,137.78-.04,117.82-.03,97.85,.09c-11.52,.07-19.84,7.58-21.43,18.94-1.52,10.79-3.69,12.7-14.69,12.83-1.12,.02-2.25,.01-3.37,.01-13.73,0-27.45-.04-41.18,.01-8.54,.04-14.99,4.82-16.71,12.21-2.47,10.6,5.1,19.76,16.48,19.77,36.94,.03,73.87,.01,110.81,.01h67c14.85,0,29.7,.08,44.55-.03,10.65-.07,17.99-9.14,15.85-19.34Zm-97.39-12.62h-60c-3.04,0-5.5-2.46-5.5-5.5s2.46-5.5,5.5-5.5h60c3.03,0,5.5,2.46,5.5,5.5s-2.47,5.5-5.5,5.5Z"/>
</svg>