<?xml version="1.0" encoding="utf-8"?>
<!-- Generator: Adobe Illustrator 26.5.0, SVG Export Plug-In . SVG Version: 6.00 Build 0)  -->
<svg version="1.1" id="Layer_1" xmlns="http://www.w3.org/2000/svg" xmlns:xlink="http://www.w3.org/1999/xlink" x="0px" y="0px"
	 viewBox="0 0 512 512" style="enable-background:new 0 0 512 512;" xml:space="preserve">
<path d="M202.2,298.2c-7.3,7.3-19.2,7.3-26.5,0l-59-59.1c-14.3-14.3-14.3-37.5,0-51.8l59.1-59.1c7.7-7,19.5-6.4,26.5,1.3
	c6.5,7.2,6.5,18.1,0,25.2l-40.4,39.6h177.7c36.7,0,66.5,29.8,66.5,66.5v83.5c0,36.7-29.8,66.4-66.5,66.5h-167
	c-10.4,0-18.7-8.4-18.7-18.7s8.4-18.7,18.7-18.7h167c16,0,29-13,29-29v-83.5c0-16-13-29-29-29h-177l39.7,39.8
	C209.6,279,209.6,290.9,202.2,298.2z"/>
</svg>
