<?xml version="1.0" encoding="UTF-8"?>
<svg id="Layer_1" data-name="Layer 1" xmlns="http://www.w3.org/2000/svg" viewBox="0 0 383.41 383.26">
  <path d="M303.23,383.26H18.72c-9.87-2.61-16.13-8.82-18.72-18.71V48.66c3.73-13.7,13.55-19.64,27.5-18.78,6.67,.41,13.4,.07,20.04,.07C50.14,10.13,57.54,1,71.5,.07c6.07-.41,11.64,1.13,16.58,4.66,8.59,6.15,11.33,15,10.84,24.97h66.92C168.14,9.89,176.29,.3,190.92,.02c6.36-.12,12.03,1.83,16.92,5.91,7.4,6.17,9.7,14.44,9.29,23.71h67.02c1.68-18.79,9.55-28.57,23.65-29.57,6.2-.44,11.88,1.14,16.91,4.81,8.42,6.14,11.03,14.93,10.69,25.06,7.91,0,15.37,0,22.84,0,16.02,0,25.11,9.02,25.11,24.95,0,80.95-.02,161.91,.07,242.86,0,4.2-1.3,7.29-4.27,10.23-23.02,22.85-45.91,45.83-68.87,68.74-2.27,2.26-4.69,4.36-7.05,6.54Zm-9.99-14.97c0-1.76,0-3.1,0-4.44,0-15.47-.03-30.94,.01-46.41,.04-15.13,9.12-24.22,24.21-24.25,15.59-.03,31.19,0,46.79,0,1.31,0,2.62,0,4.13,0,0-1.72,0-2.84,0-3.95,0-78.22,0-156.43,0-234.65,0-1,.07-2.01-.08-2.99-.57-3.6-2.69-6.33-6.25-6.47-8.8-.34-17.63-.11-26.74-.11,0,5.68,.04,11.02,0,16.36-.06,6.59-2,12.51-6.41,17.51-6.99,7.9-17.76,10.7-27.6,7.19-9.96-3.55-16.61-12.68-16.84-23.35-.13-5.82-.02-11.65-.02-17.52h-67.36c0,6.02,.15,11.76-.03,17.49-.45,14.06-11.83,25-25.71,24.88-13.56-.12-24.8-11.1-25.1-24.67-.13-5.93-.02-11.87-.02-17.78H98.83c0,5.42,.02,10.63,0,15.84-.07,15.2-11.02,26.62-25.48,26.61-14.43-.01-25.37-11.48-25.42-26.67-.02-5.21,0-10.41,0-15.98-8.05,0-15.75-.01-23.45,0-6.88,.01-9.48,2.61-9.49,9.49-.01,18.59,0,37.17,0,55.76v3.61h5.13c97.45,0,194.89,0,292.34,0,1.37,0,2.76-.08,4.11,.06,4,.41,6.92,3.69,6.85,7.55-.07,3.73-2.9,6.84-6.75,7.28-1.36,.15-2.74,.07-4.11,.07-97.57,0-195.14,0-292.72,0h-4.58v203.42h4.72c31.19,0,62.39,0,93.58,0,1.37,0,2.75-.04,4.11,.07,3.84,.33,6.54,2.99,6.84,6.67,.33,3.9-1.96,7.09-5.87,7.9-1.57,.32-3.22,.31-4.83,.31-31.44,.02-62.89,.01-94.33,.01h-4.52c0,3.81,0,7.04,0,10.26,0,8.78,2.07,10.88,10.73,10.88,87.59,0,175.18,0,262.77,0h4.76Zm14.97-11.96c16.15-16.14,32.11-32.09,48.01-47.98,.2,.13,0-.1-.19-.1-13.58-.02-27.16-.12-40.73,.02-4.23,.04-6.83,2.88-7.01,7.22-.18,4.23-.08,8.47-.08,12.7,0,9.44,0,18.88,0,28.15ZM83.85,43.97c0-5.98,.07-11.96-.02-17.94-.09-6.34-4.44-10.93-10.28-11.04-5.98-.11-10.6,4.56-10.64,11.04-.08,11.83-.08,23.67,0,35.5,.04,6.34,4.43,10.93,10.27,11.04,5.98,.11,10.55-4.56,10.65-11.05,.09-5.85,.02-11.71,.02-17.56Zm97.29-.57c0,6.1-.07,12.21,.02,18.31,.09,6.28,4.56,10.87,10.41,10.87,5.71,0,10.37-4.4,10.46-10.48,.17-12.2,.17-24.41,0-36.61-.08-6.08-4.73-10.48-10.44-10.49-5.85,0-10.34,4.58-10.43,10.85-.09,5.85-.02,11.71-.02,17.56Zm118.23,0c0,6.1-.08,12.2,.02,18.3,.1,6.2,4.3,10.66,10.02,10.86,5.85,.21,10.71-4.17,10.82-10.48,.22-12.2,.22-24.41,0-36.61-.11-6.31-4.96-10.69-10.82-10.49-5.72,.2-9.92,4.66-10.02,10.85-.1,5.85-.02,11.7-.02,17.56Z"/>
  <path d="M179.86,211.09v17.97c7.45,0,14.76,0,22.07,0,11.86,0,17.38,5.5,17.38,17.35,0,5.11,.06,10.22-.02,15.33-.14,9.08-6.28,15.15-15.39,15.21-7.98,.05-15.96,.06-23.94,0-9.07-.07-15.18-6.22-15.21-15.36-.05-16.7-.06-33.41,0-50.11,.03-9.15,6.13-15.29,15.21-15.35,10.22-.06,20.45-.04,30.67,0,5.11,.02,8.54,3,8.64,7.34,.09,4.47-3.44,7.59-8.74,7.61-10.09,.04-20.18,.01-30.67,.01Zm24.37,33.22h-24.32v17.39h24.32v-17.39Z"/>
  <path d="M131.72,262v-17.97c-1.24,0-2.42,0-3.6,0-9.11,0-18.22,.03-27.33-.01-5.04-.03-8.51-3.14-8.51-7.48,0-4.33,3.48-7.44,8.53-7.46,10.2-.04,20.4-.01,30.79-.01v-17.97c-1.16,0-2.34,0-3.53,0-9.11,0-18.22,.04-27.33-.02-5.03-.03-8.5-3.19-8.46-7.53,.04-4.35,3.49-7.4,8.57-7.42,10.36-.04,20.71-.08,31.07,.01,8.65,.08,14.79,6.25,14.83,14.95,.07,16.97,.07,33.93,0,50.9-.04,8.69-6.19,14.87-14.84,14.95-10.36,.09-20.71,.05-31.07,.01-5.07-.02-8.53-3.09-8.55-7.43-.03-4.33,3.44-7.48,8.48-7.51,10.2-.05,20.41-.01,30.96-.01Z"/>
  <path d="M252.42,211.09v17.97c7.6,0,15.05,0,22.49,0,11.1,0,16.86,5.71,16.89,16.76,.02,5.24,.08,10.48-.02,15.71-.18,9.41-6.22,15.39-15.58,15.43-9.98,.04-19.96,.03-29.94,0-5.57-.01-8.87-2.75-8.95-7.34-.08-4.77,3.25-7.61,9.04-7.62,9.97-.02,19.95,0,30.2,0v-17.97c-7.42,0-14.74,0-22.06,0-11.71,0-17.2-5.45-17.21-17.09,0-5.36-.06-10.73,.02-16.09,.13-8.48,6.2-14.62,14.67-14.7,10.48-.1,20.96-.07,31.44,0,5,.03,8.44,3.28,8.32,7.65-.12,4.26-3.44,7.26-8.31,7.28-10.21,.06-20.42,.02-31,.02Z"/>
  <path d="M345.85,128.72c-4.12-.03-7.54-3.58-7.41-7.7,.13-3.98,3.53-7.25,7.51-7.22,4.13,.03,7.55,3.58,7.41,7.69-.13,3.97-3.54,7.25-7.51,7.22Z"/>
  <path d="M147.06,332.21c4.16,0,7.37,3.1,7.46,7.21,.09,4.2-3.29,7.68-7.46,7.67-4.13,0-7.63-3.58-7.52-7.68,.11-4.04,3.41-7.2,7.53-7.2Z"/>
</svg>